<?xml version="1.0" encoding="UTF-8"?>
<svg height="100%" width="100%" xmlns="http://www.w3.org/2000/svg">
	<defs>
		<font horiz-adv-x="526" id="web">
			<font-face alphabetic="0" ascent="950" descent="-250" font-family="" panose-1="2 11 5 6 4 7 2 4 2 4"/>
			<missing-glyph d="M86 710H491V0H86ZM157 647V63H420V647Z" horiz-adv-x="577"/>
			<glyph d="" horiz-adv-x="240" unicode=" "/>
			<glyph d="M68 710H152V627L138 203H80L68 627ZM63 111H155V0H63Z" horiz-adv-x="218" unicode="!"/>
			<glyph d="M53 710H127L118 425H62ZM205 710H280L270 425H215Z" horiz-adv-x="333" unicode="&quot;"/>
			<glyph d="M195 710H268L241 515H365L392 710H465L438 515H532V453H429L403 268H501V206H394L365 0H292L321 206H197L168 0H95L124 206H26V268H133L159 453H57V515H168ZM232 453L206 268H330L356 453Z" horiz-adv-x="559" unicode="#"/>
			<glyph d="M240 780H292V722Q381 718 419 677T457 547V528H381V547Q381 601 361 627T292 659V407L301 403Q309 400 362 379T444 311T474 190Q474 92 432 43T292 -12V-100H240V-13Q139 -8 96 40T54 192V226H131V195Q131 123 154 89T240 51V342L213 353Q166 372 136 390T87 445T68 540Q68 629 108 673T240 722ZM240 659Q190 654 168 628T146 551Q146 513 157 490T188 454T240 427ZM292 322V51Q349 57 372 88T395 177Q395 223 381 251T347 294T292 322Z" unicode="$"/>
			<glyph d="M156 723Q208 723 235 706T274 648T286 531V516Q286 440 274 399T235 340T156 323Q104 323 76 340T36 399T25 516V531Q25 607 36 648T76 706T156 723ZM505 720H573L190 -10H123ZM156 666Q132 666 120 654T103 614T99 525V520Q99 461 103 432T120 393T156 382Q180 382 191 393T207 432T212 520V525Q212 585 207 614T191 654T156 666ZM541 387Q593 387 620 369T659 311T671 194V179Q671 103 659 62T620 4T541 -13Q489 -13 461 4T421 62T409 179V194Q409 270 421 311T461 369T541 387ZM541 328Q516 328 504 317T487 277T483 189V184Q483 125 487 96T504 55T541 44Q565 44 576 55T592 96T597 184V189Q597 248 592 277T576 317T541 328Z" horiz-adv-x="696" unicode="%"/>
			<glyph d="M258 723Q336 723 374 685T412 588Q412 549 396 519T358 466T294 410Q278 398 270 391L286 368L404 198Q414 242 414 308V391H493V321Q493 204 456 124L542 0H455L413 59Q349 -13 240 -13Q44 -13 44 175Q44 228 62 268T106 335T175 397Q133 454 114 492T95 578Q95 638 132 680T258 723ZM259 658Q173 658 173 578Q173 544 187 513T232 442Q240 448 274 475T323 527T338 583Q338 618 318 638T259 658ZM215 343Q172 304 150 269T128 183Q128 118 158 86T244 55Q332 55 373 117L226 327Z" horiz-adv-x="555" unicode="&amp;"/>
			<glyph d="M53 710H127L118 425H62Z" horiz-adv-x="180" unicode="'"/>
			<glyph d="M135 710H212Q129 528 129 261Q129 -5 212 -187H135Q40 -13 40 261Q40 536 135 710Z" horiz-adv-x="218" unicode="("/>
			<glyph d="M6 710H84Q178 535 178 261Q178 -12 84 -187H6Q89 -5 89 261Q89 528 6 710Z" horiz-adv-x="218" unicode=")"/>
			<glyph d="M160 710H222L216 578L327 650L358 596L240 536L358 475L327 422L216 493L222 361H160L166 493L55 422L24 475L142 536L24 596L55 650L166 578Z" horiz-adv-x="382" unicode="*"/>
			<glyph d="M226 538H300V377H463V303H300V137H226V303H62V377H226Z" unicode="+"/>
			<glyph d="M66 111H158V-33Q158 -78 138 -95T80 -113H61V-70H72Q92 -70 101 -60T110 -28V0H66Z" horiz-adv-x="225" unicode=","/>
			<glyph d="M36 327H259V258H36Z" horiz-adv-x="295" unicode="-"/>
			<glyph d="M66 111H158V0H66Z" horiz-adv-x="224" unicode="."/>
			<glyph d="M185 729H265L65 -19H-15Z" horiz-adv-x="250" unicode="/"/>
			<glyph d="M263 723Q345 723 388 691T450 585T468 368V342Q468 200 450 125T388 18T263 -13Q181 -13 137 18T76 125T58 342V368Q58 510 76 585T137 691T263 723ZM263 653Q214 653 190 629T156 545T147 363V347Q147 225 156 164T190 80T263 57Q312 57 336 80T369 164T379 347V363Q379 485 369 545T336 629T263 653Z" unicode="0"/>
			<glyph d="M126 712H199V0H112V602H19V679H88Q108 679 116 685T126 712Z" horiz-adv-x="282" unicode="1"/>
			<glyph d="M260 723Q359 723 403 678T447 544Q447 497 432 456T393 380T325 286L163 76H462V0H53V58L263 333Q319 405 341 450T363 544Q363 601 339 627T261 654Q198 654 172 623T146 528V495H64V528Q64 625 108 674T260 723Z" horiz-adv-x="506" unicode="2"/>
			<glyph d="M263 723Q363 723 408 677T453 540V525Q453 468 428 426T359 366Q466 337 466 197V177Q466 85 417 36T260 -13Q148 -13 101 33T55 185V200H144V189Q144 117 169 86T261 55Q323 55 349 86T376 189V197Q376 267 350 298T259 329H192V397H259Q369 397 369 519V530Q369 597 344 626T263 655Q205 655 179 628T153 546V537H69V556Q69 723 263 723Z" unicode="3"/>
			<glyph d="M319 710H406V244H486V171H406V0H319V171H33V231ZM319 586L115 244H319Z" unicode="4"/>
			<glyph d="M87 710H441V633H162L152 408Q195 467 292 467Q387 467 427 411T468 243V212Q468 98 420 42T265 -13Q157 -13 110 35T63 179V195H152V187Q152 120 176 88T265 56Q330 56 354 95T378 220V235Q378 292 370 326T337 380T265 399Q223 399 192 383T146 336L71 337Z" unicode="5"/>
			<glyph d="M271 723Q362 723 407 681T455 539H367Q367 604 342 629T270 655Q221 655 195 632T158 555T148 396V371Q193 444 292 444Q385 444 427 392T470 229V212Q470 95 422 41T265 -13Q153 -13 106 50T60 245V398Q60 520 78 589T142 691T271 723ZM272 376Q202 376 175 337T149 221V214Q149 137 174 96T265 55Q332 55 356 91T380 210V221Q380 305 357 340T272 376Z" unicode="6"/>
			<glyph d="M14 710H387V649L177 0H85L292 631H14Z" horiz-adv-x="413" unicode="7"/>
			<glyph d="M263 723Q365 723 410 679T455 549V534Q455 479 431 440T361 383Q418 366 443 321T469 204V183Q469 82 421 34T263 -13Q152 -13 105 34T58 183V204Q58 277 83 321T165 383Q120 401 95 440T71 534V549Q71 635 116 679T263 723ZM263 661Q205 661 180 633T155 546V533Q155 414 263 414Q371 414 371 533V546Q371 604 345 632T263 661ZM263 352Q198 352 172 316T147 200V193Q147 117 174 83T263 49Q326 49 352 82T379 193V200Q379 281 353 316T263 352Z" unicode="8"/>
			<glyph d="M265 723Q375 723 421 659T467 465V312Q467 190 448 120T385 19T257 -13Q166 -13 120 28T71 171H160Q160 106 185 80T259 55Q308 55 333 77T368 155T379 315V341Q336 266 235 266Q142 266 99 318T56 481V498Q56 614 105 668T265 723ZM265 655Q197 655 171 618T146 500V489Q146 406 168 370T254 334Q325 334 351 372T378 489V496Q378 574 354 614T265 655Z" unicode="9"/>
			<glyph d="M66 514H158V403H66ZM66 111H158V0H66Z" horiz-adv-x="224" unicode=":"/>
			<glyph d="M66 514H158V403H66ZM66 111H158V-33Q158 -78 138 -95T80 -113H61V-70H72Q92 -70 101 -60T110 -28V0H66Z" horiz-adv-x="224" unicode=";"/>
			<glyph d="M450 557V479L155 340L450 201V123L76 303V377Z" unicode="&lt;"/>
			<glyph d="M76 484H450V410H76ZM76 270H450V196H76Z" unicode="="/>
			<glyph d="M76 557L450 377V303L76 123V201L371 340L76 479Z" unicode="&gt;"/>
			<glyph d="M218 723Q291 723 333 706T394 652T412 555Q412 509 400 479T372 432T326 394T280 356T252 310T241 235V203H175Q173 231 173 248Q173 304 185 340T215 395T260 436Q283 454 296 467T317 501T326 555Q326 613 303 635T219 658Q175 658 151 648T116 614T106 546V534H23V546Q23 613 42 651T103 706T218 723ZM160 111H252V0H160Z" horiz-adv-x="445" unicode="?"/>
			<glyph d="M367 630Q474 630 540 598T639 493T672 294V263Q672 187 660 145T621 84T546 66Q462 66 447 135Q435 98 407 82T344 66Q275 66 245 105T215 239V268Q215 363 244 402T340 442Q376 442 400 427T440 378L444 433H510V208Q510 159 519 141T550 123Q570 123 580 136T594 181T598 276V286Q598 396 575 455T502 538T367 562Q278 562 227 535T154 442T131 256V246Q131 131 154 68T228 -20T369 -46H558V-118H379Q263 -118 192 -86T88 23T54 238V264Q54 405 87 484T187 597T367 630ZM359 384Q320 384 304 357T288 263V244Q288 176 304 150T359 124Q437 124 437 210V297Q437 384 359 384Z" horiz-adv-x="726" unicode="@"/>
			<glyph d="M209 710H320L520 0H426L380 177H148L102 0H10ZM264 629L166 247H362Z" horiz-adv-x="530" unicode="A"/>
			<glyph d="M74 710H225Q321 710 373 695T447 644T470 543V517Q470 458 447 424T372 374Q437 359 463 320T490 209V183Q490 111 468 72T393 16T245 0H74ZM164 645V404H226Q289 404 321 414T365 448T377 519V529Q377 576 365 600T321 635T226 645ZM164 340V65H246Q309 65 341 77T385 117T397 199V209Q397 262 385 289T341 328T246 340Z" horiz-adv-x="542" unicode="B"/>
			<glyph d="M278 723Q353 723 399 701T468 626T491 480V478H397V480Q397 577 368 614T278 652Q224 652 196 627T158 540T147 360V350Q147 231 158 169T196 83T278 58Q324 58 351 76T391 137T404 257V260H497V257Q497 153 474 94T404 11T278 -13Q189 -13 141 18T74 125T54 342V368Q54 509 74 584T141 691T278 723Z" horiz-adv-x="548" unicode="C"/>
			<glyph d="M74 710H248Q347 710 400 680T475 577T497 368V342Q497 205 475 132T400 30T248 0H74ZM164 637V73H246Q313 73 346 97T391 179T404 350V360Q404 473 391 531T346 613T246 637Z" horiz-adv-x="551" unicode="D"/>
			<glyph d="M74 710H423V638H164V400H396V328H164V72H433V0H74Z" horiz-adv-x="469" unicode="E"/>
			<glyph d="M74 710H423V636H164V386H396V311H164V0H74Z" horiz-adv-x="447" unicode="F"/>
			<glyph d="M280 723Q356 723 402 702T472 630T496 492V489H403V492Q403 580 373 616T280 652Q225 652 196 626T157 539T146 360V350Q146 232 157 170T196 83T280 58Q327 58 355 76T396 135T409 248V289H292V362H503V253Q503 151 480 93T408 11T280 -13Q189 -13 141 18T73 125T53 342V368Q53 510 73 585T141 691T280 723Z" horiz-adv-x="553" unicode="G"/>
			<glyph d="M74 710H164V404H415V710H505V0H415V322H164V0H74Z" horiz-adv-x="578" unicode="H"/>
			<glyph d="M74 710H164V0H74Z" horiz-adv-x="237" unicode="I"/>
			<glyph d="M338 710H429V253Q429 148 411 91T352 11T234 -13Q157 -13 115 7T56 76T39 212V236H130V212Q130 152 139 119T170 72T234 58Q276 58 298 75T329 133T338 251Z" horiz-adv-x="500" unicode="J"/>
			<glyph d="M74 710H164V371L390 710H491L275 400L519 0H415L218 332L164 279V0H74Z" horiz-adv-x="524" unicode="K"/>
			<glyph d="M74 710H164V79H399V0H74Z" horiz-adv-x="425" unicode="L"/>
			<glyph d="M74 710H203L373 154L543 710H666V0H583V609L397 0H340L152 612V0H74Z" horiz-adv-x="739" unicode="M"/>
			<glyph d="M74 710H182L432 119V710H512V0H404L154 589V0H74Z" horiz-adv-x="585" unicode="N"/>
			<glyph d="M280 723Q371 723 419 691T487 584T508 368V342Q508 201 487 125T419 18T280 -13Q190 -13 142 18T74 125T54 342V368Q54 510 74 585T142 691T280 723ZM280 652Q225 652 197 626T158 539T147 360V350Q147 232 158 170T197 83T280 58Q335 58 364 84T404 171T415 350V360Q415 477 404 538T364 626T280 652Z" horiz-adv-x="562" unicode="O"/>
			<glyph d="M74 710H238Q336 710 389 691T464 627T487 501V475Q487 392 464 347T389 284T238 265H164V0H74ZM164 637V338H239Q304 338 336 351T381 394T394 483V493Q394 551 381 581T336 624T239 637Z" horiz-adv-x="530" unicode="P"/>
			<glyph d="M280 723Q371 723 419 691T487 584T508 368V342Q508 232 495 163T453 55T375 2L489 -146H380L287 -13H280Q190 -13 142 18T74 125T54 342V368Q54 510 74 585T142 691T280 723ZM280 652Q225 652 197 626T158 539T147 360V350Q147 232 158 170T197 83T280 58Q335 58 364 84T404 171T415 350V360Q415 477 404 538T364 626T280 652Z" horiz-adv-x="559" unicode="Q"/>
			<glyph d="M74 710H236Q334 710 387 692T462 632T485 510V484Q485 402 458 358T369 298L496 0H399L285 286Q270 285 236 285H164V0H74ZM164 637V357H237Q301 357 334 369T379 410T392 492V502Q392 557 379 585T334 625T237 637Z" horiz-adv-x="539" unicode="R"/>
			<glyph d="M258 723Q330 723 371 705T430 650T448 547V528H365V547Q365 604 340 629T255 655Q197 655 171 629T145 551Q145 512 157 488T190 451T246 424L292 406Q296 405 300 403T311 399Q361 379 391 359T443 299T465 190Q465 85 417 36T253 -13Q174 -13 129 8T65 74T46 192V224H131V195Q131 122 159 88T257 55Q324 55 351 85T378 177Q378 230 361 259T323 299T252 330L203 349Q156 368 126 387T77 443T57 540Q57 635 104 679T258 723Z" horiz-adv-x="511" unicode="S"/>
			<glyph d="M16 710H433V631H269V0H179V631H16Z" horiz-adv-x="450" unicode="T"/>
			<glyph d="M71 710H162V247Q162 172 173 132T210 75T284 58Q332 58 358 75T395 132T406 247V710H497V253Q497 148 478 91T413 11T284 -13Q200 -13 154 11T90 91T71 253Z" horiz-adv-x="568" unicode="U"/>
			<glyph d="M7 710H104L255 87L406 710H501L309 0H200Z" horiz-adv-x="508" unicode="V"/>
			<glyph d="M8 710H98L222 94L358 710H454L590 94L714 710H799L640 0H535L404 600L272 0H167Z" horiz-adv-x="806" unicode="W"/>
			<glyph d="M18 710H112L255 434L395 710H488L307 370L498 0H402L250 302L101 0H8L198 367Z" horiz-adv-x="505" unicode="X"/>
			<glyph d="M5 710H101L250 357L397 710H491L293 275V0H203V275Z" horiz-adv-x="495" unicode="Y"/>
			<glyph d="M53 710H424V649L135 73H442V0H36V61L325 637H53Z" horiz-adv-x="473" unicode="Z"/>
			<glyph d="M74 710H248V639H160V-116H248V-187H74Z" horiz-adv-x="255" unicode="["/>
			<glyph d="M-15 729H65L265 -19H185Z" horiz-adv-x="250" unicode="\"/>
			<glyph d="M6 710H181V-187H6V-116H95V639H6Z" horiz-adv-x="255" unicode="]"/>
			<glyph d="M176 710H257L394 415H314L216 649L120 415H39Z" horiz-adv-x="433" unicode="^"/>
			<glyph d="M0 -26H325V-70H0Z" horiz-adv-x="325" unicode="_"/>
			<glyph d="M40 723H145L227 590H154Z" horiz-adv-x="267" unicode="`"/>
			<glyph d="M242 527Q305 527 341 510T394 454T411 351V0H336L331 83Q316 34 283 12T188 -10Q115 -10 79 25T43 138Q43 198 64 232T131 281T257 296H328V345Q328 394 319 420T292 458T240 469Q191 469 171 445T147 359H65Q69 422 87 458T143 511T242 527ZM264 240Q187 240 157 218T127 142Q127 91 148 70T218 49Q277 49 302 83T328 199V240Z" horiz-adv-x="473" unicode="a"/>
			<glyph d="M66 710H151V441Q174 488 206 507T290 527Q351 527 386 502T438 422T454 270V244Q454 147 438 91T386 11T290 -13Q236 -13 202 8T146 82L143 0H66ZM260 463Q209 463 180 430T151 327V186Q151 51 260 51Q302 51 325 69T359 131T370 251V262Q370 339 359 382T325 444T260 463Z" horiz-adv-x="499" unicode="b"/>
			<glyph d="M236 527Q325 527 366 486T414 347H330Q326 412 304 439T236 466Q196 466 173 447T141 385T131 266V248Q131 172 140 129T172 67T235 48Q285 48 306 77T333 180H417Q412 107 393 65T337 5T235 -13Q163 -13 122 11T63 91T45 244V270Q45 366 64 422T124 502T236 527Z" horiz-adv-x="456" unicode="c"/>
			<glyph d="M349 710H433V0H357L353 82Q331 29 298 8T210 -13Q149 -13 113 11T61 92T45 244V270Q45 366 61 422T113 502T210 527Q262 527 294 507T349 440ZM240 463Q198 463 174 444T140 383T130 262V251Q130 174 140 131T174 69T240 51Q290 51 319 83T349 186V327Q349 398 319 430T240 463Z" horiz-adv-x="499" unicode="d"/>
			<glyph d="M242 527Q314 527 354 503T413 426T431 280V243H131Q132 168 142 125T175 63T242 44Q293 44 314 69T343 158H427Q422 94 403 57T345 3T242 -13Q168 -13 125 11T64 91T45 244V270Q45 366 64 422T126 502T242 527ZM242 470Q202 470 178 454T144 401T131 299H346Q344 364 334 401T302 454T242 470Z" horiz-adv-x="474" unicode="e"/>
			<glyph d="M221 710H289V644H236Q196 644 181 624T166 552V514H281V449H166V0H81V449H10V514H81V559Q81 642 113 676T221 710Z" horiz-adv-x="286" unicode="f"/>
			<glyph d="M210 527Q265 527 297 506T353 433L357 514H433V41Q433 -51 413 -104T351 -182T234 -206Q171 -206 134 -193T78 -150T54 -68H139Q145 -113 166 -130T240 -147Q283 -147 306 -129T339 -70T349 43V85Q327 37 294 17T210 -3Q149 -3 113 21T61 99T45 248V274Q45 369 61 423T113 502T210 527ZM240 463Q198 463 174 444T140 384T130 266V255Q130 181 140 139T174 79T240 61Q290 61 319 93T349 196V327Q349 399 319 431T240 463Z" horiz-adv-x="498" unicode="g"/>
			<glyph d="M65 710H150V444Q171 488 204 507T293 527Q347 527 377 510T421 457T435 356V0H351V334Q351 384 344 411T317 450T261 463Q208 463 179 431T150 321V0H65Z" horiz-adv-x="497" unicode="h"/>
			<glyph d="M65 688H151V599H65ZM65 514H150V0H65Z" horiz-adv-x="215" unicode="i"/>
			<glyph d="M64 688H150V599H64ZM65 514H149V-49Q149 -104 136 -136T95 -182T15 -196H-23V-126H-9Q32 -126 48 -107T65 -40Z" horiz-adv-x="215" unicode="j"/>
			<glyph d="M66 710H151V285L320 514H414L248 305L434 0H340L196 244L151 198V0H66Z" horiz-adv-x="437" unicode="k"/>
			<glyph d="M66 710H151V0H66Z" horiz-adv-x="217" unicode="l"/>
			<glyph d="M285 527Q341 527 372 504T414 429Q433 481 466 504T556 527Q606 527 635 510T678 457T691 356V0H606V334Q606 384 599 411T575 450T524 463Q420 463 420 321V0H336V334Q336 406 318 434T253 463Q150 463 150 321V0H65V514H142L146 435Q166 484 199 505T285 527Z" horiz-adv-x="752" unicode="m"/>
			<glyph d="M293 527Q347 527 377 510T421 457T435 356V0H351V334Q351 384 344 411T317 450T261 463Q208 463 179 431T150 321V0H65V514H142L146 435Q167 485 201 506T293 527Z" horiz-adv-x="497" unicode="n"/>
			<glyph d="M243 527Q318 527 360 502T421 422T440 270V244Q440 147 421 91T360 11T243 -13Q168 -13 125 11T64 91T45 244V270Q45 367 64 422T125 502T243 527ZM243 466Q199 466 175 447T141 385T131 266V248Q131 172 141 129T175 67T243 48Q286 48 310 67T344 129T354 248V266Q354 342 344 385T310 447T243 466Z" horiz-adv-x="485" unicode="o"/>
			<glyph d="M289 527Q350 527 385 502T437 422T453 270V244Q453 147 437 91T385 11T289 -13Q238 -13 205 6T150 73V-196H65V514H142L146 434Q169 485 202 506T289 527ZM260 463Q209 463 179 430T150 327V186Q150 115 179 83T260 51Q301 51 324 69T358 131T369 251V262Q369 339 358 382T324 444T260 463Z" horiz-adv-x="498" unicode="p"/>
			<glyph d="M210 527Q266 527 298 506T353 432L357 514H433V-196H349V74Q327 26 294 6T210 -13Q149 -13 113 11T61 92T45 244V270Q45 366 61 422T113 502T210 527ZM240 463Q198 463 174 444T140 383T130 262V251Q130 174 140 131T174 69T240 51Q290 51 319 83T349 186V327Q349 398 319 430T240 463Z" horiz-adv-x="498" unicode="q"/>
			<glyph d="M288 527H305V447H278Q209 447 179 400T150 282V0H65V514H142L146 410Q164 469 198 498T288 527Z" horiz-adv-x="305" unicode="r"/>
			<glyph d="M215 527Q276 527 311 513T361 471T376 393V380H300V392Q300 433 280 450T214 468Q165 468 144 450T124 394Q124 368 134 353T161 331T210 312L254 298Q306 280 331 266T375 223T393 139Q393 59 351 23T215 -13Q117 -13 77 22T37 139V163H115V144Q115 91 138 68T217 46Q269 46 291 67T313 135Q313 169 300 187T268 214T204 237L161 251Q123 263 99 277T60 317T45 389Q45 460 85 493T215 527Z" horiz-adv-x="430" unicode="s"/>
			<glyph d="M81 650H166V514H274V449H166V157Q166 105 182 85T240 65H282V-5H216Q142 -5 111 28T81 142V449H10V514H81Z" horiz-adv-x="302" unicode="t"/>
			<glyph d="M62 514H146V182Q146 131 153 103T180 63T237 51Q290 51 318 83T347 193V514H432V0H355L351 79Q331 29 296 8T205 -13Q151 -13 120 3T75 57T62 158Z" horiz-adv-x="497" unicode="u"/>
			<glyph d="M7 514H96L205 62L314 514H401L256 0H152Z" horiz-adv-x="408" unicode="v"/>
			<glyph d="M7 514H89L185 75L282 514H380L476 78L572 514H651L524 0H427L329 434L230 0H134Z" horiz-adv-x="658" unicode="w"/>
			<glyph d="M19 514H112L211 321L307 514H398L258 268L409 0H316L205 216L100 0H9L159 270Z" horiz-adv-x="418" unicode="x"/>
			<glyph d="M6 514H94L206 109L320 514H406L223 -76Q208 -125 194 -150T158 -187T95 -199H63V-128H80Q108 -128 121 -117T144 -75L169 4Z" horiz-adv-x="413" unicode="y"/>
			<glyph d="M45 514H363V459L122 66H374V0H27V55L268 448H45Z" horiz-adv-x="397" unicode="z"/>
			<glyph d="M206 710H254V639H226Q188 639 173 621T159 556V335Q159 278 120 262Q159 245 159 189V-34Q159 -81 173 -99T226 -117H254V-187H206Q156 -187 127 -174T85 -130T73 -47V168Q73 199 64 210T34 222H5V301H34Q56 301 64 312T73 355V569Q73 648 102 679T206 710Z" horiz-adv-x="260" unicode="{"/>
			<glyph d="M89 750H170V-124H89Z" horiz-adv-x="259" unicode="|"/>
			<glyph d="M6 710H54Q128 710 157 679T187 569V355Q187 324 195 312T226 301H255V222H226Q204 222 195 210T187 168V-47Q187 -100 174 -130T133 -174T54 -187H6V-117H34Q72 -117 86 -99T101 -34V189Q101 245 140 262Q101 278 101 335V556Q101 603 86 621T34 639H6Z" horiz-adv-x="260" unicode="}"/>
			<glyph d="M159 399Q188 399 214 390T272 366Q300 353 316 347T349 341Q370 341 377 350T385 384V398H454V365Q454 316 431 295T365 274Q335 274 309 283T249 308Q223 320 207 326T176 332Q156 332 148 322T140 289V275H72V308Q72 356 94 377T159 399Z" unicode="~"/>
			<glyph d="" horiz-adv-x="240" unicode=" "/>
			<glyph d="M63 514H155V403H63ZM80 311H138L152 -113V-196H68V-113Z" horiz-adv-x="218" unicode="¡"/>
			<glyph d="M198 710H270V606Q340 600 373 560T415 436H329Q324 494 302 518T234 542Q195 542 173 524T141 467T132 358V354Q132 285 141 245T173 188T236 171Q286 171 306 197T331 290H418Q411 197 378 155T270 107V0H198V108Q140 114 107 140T59 217T44 354V360Q44 444 59 496T108 574T198 606Z" horiz-adv-x="456" unicode="¢"/>
			<glyph d="M296 723Q362 723 401 704T458 644T477 530V513H391V526Q391 598 370 626T297 654Q258 654 236 640T204 594T195 505V366H394V293H195V155Q195 122 189 104T172 75H503V0H22V72H43Q76 72 92 91T108 154V293H33V366H108V507Q108 621 150 672T296 723Z" unicode="£"/>
			<glyph d="M123 533L181 475Q216 495 264 495Q311 495 348 475L404 532L457 480L401 424Q423 386 423 339Q423 292 401 254L458 197L406 146L349 204Q313 183 264 183Q216 183 181 203L121 143L69 196L127 254Q106 293 106 339Q106 385 127 424L71 481ZM264 436Q221 436 195 409T169 339Q169 296 195 269T264 242Q307 242 333 269T360 339Q360 382 333 409T264 436Z" unicode="¤"/>
			<glyph d="M20 710H114L265 347L414 710H506L339 345H451V279H309L306 272V216H451V150H306V0H220V150H75V216H220V275L218 279H75V345H188Z" unicode="¥"/>
			<glyph d="M89 750H170V396H89ZM89 230H170V-124H89Z" horiz-adv-x="259" unicode="¦"/>
			<glyph d="M235 723Q296 723 331 709T381 667T396 589V575H320V588Q320 629 300 646T234 664Q186 664 165 645T144 588Q144 557 154 538T181 510T230 489L274 472Q325 453 351 438T395 393T413 311Q413 214 324 185Q362 165 382 131T403 36Q403 -44 359 -79T215 -115Q149 -115 110 -100T54 -52T37 37V60H115V41Q115 -12 137 -34T217 -56Q274 -56 298 -35T323 32Q323 68 312 88T282 119T229 143L204 153L167 169Q127 185 102 202T61 248T45 323Q45 421 131 450Q100 468 83 499T66 583Q66 655 106 689T235 723ZM194 423Q158 417 141 392T124 331Q124 291 145 269T211 231L254 214Q255 213 256 213Q258 213 259 212Q334 223 334 301Q334 336 321 355T288 385T225 411Z" horiz-adv-x="450" unicode="§"/>
			<glyph d="M41 677H123V590H41ZM203 677H285V590H203Z" horiz-adv-x="326" unicode="¨"/>
			<glyph d="M415 719Q519 719 601 672T730 542T777 356Q777 252 730 169T601 40T415 -7Q311 -7 228 40T98 169T52 356Q52 460 98 542T228 672T415 719ZM415 653Q330 653 263 615T159 509T122 356Q122 270 159 202T263 96T415 58Q499 58 565 96T669 202T707 356Q707 442 669 509T565 615T415 653ZM418 566Q490 566 522 535T555 433V430H483V433Q483 478 467 495T418 512Q388 512 373 499T352 456T346 366V358Q346 299 352 268T373 224T418 211Q455 211 470 231T486 308V311H559V308Q559 225 526 191T418 158Q361 158 330 176T287 236T274 354V370Q274 445 287 487T330 547T418 566Z" horiz-adv-x="830" unicode="©"/>
			<glyph d="M168 720Q235 720 262 694T289 607V387H230L226 433Q215 405 192 393T128 381Q28 381 28 474Q28 530 61 552T177 574H222V604Q222 644 210 658T168 673Q137 673 124 660T109 612H43Q47 672 75 696T168 720ZM182 534Q134 534 115 521T96 478Q96 450 109 438T152 426Q189 426 205 445T222 511V534Z" horiz-adv-x="329" unicode="ª"/>
			<glyph d="M180 472H253L137 260L253 48H180L56 257V263ZM347 472H420L304 260L420 48H347L223 257V263Z" horiz-adv-x="468" unicode="«"/>
			<glyph d="M53 417H453V177H380V343H53Z" unicode="¬"/>
			<glyph d="M36 327H259V258H36Z" horiz-adv-x="295" unicode="­"/>
			<glyph d="M247 721Q309 721 358 693T436 615T464 503Q464 441 436 391T358 314T247 286Q184 286 134 314T57 391T29 503Q29 565 57 615T134 693T247 721ZM247 677Q197 677 158 654T97 592T75 503Q75 453 97 413T158 351T247 329Q296 329 334 351T395 413T417 503Q417 553 395 592T334 654T247 677ZM179 628H244Q292 628 310 613T328 558V552Q328 522 318 506T285 483L332 386H290L249 478H234H218V386H179ZM218 594V512H243Q270 512 278 520T287 552V555Q287 579 278 586T243 594Z" horiz-adv-x="492" unicode="®"/>
			<glyph d="M40 655H292V590H40Z" horiz-adv-x="332" unicode="¯"/>
			<glyph d="M171 718Q233 718 271 681T309 583Q309 522 271 485T171 448Q109 448 71 485T34 583Q34 644 71 681T171 718ZM171 659Q137 659 116 638T96 583Q96 549 116 528T171 507Q205 507 226 528T247 583Q247 617 226 638T171 659Z" horiz-adv-x="343" unicode="°"/>
			<glyph d="M226 508H300V366H463V293H300V146H226V293H62V366H226ZM62 80H463V6H62Z" unicode="±"/>
			<glyph d="M174 817Q238 817 266 790T294 707Q294 665 276 632T215 546L136 446H302V384H43V431L159 579Q196 627 210 653T225 707Q225 735 213 748T174 761Q142 761 129 745T117 696V676H50V697Q50 760 77 788T174 817Z" horiz-adv-x="343" unicode="²"/>
			<glyph d="M171 817Q237 817 265 790T293 708V698Q293 627 239 604Q301 585 301 505V494Q301 435 271 406T170 377Q98 377 69 404T41 496V509H116V501Q116 462 127 446T172 431Q202 431 214 447T226 502V507Q226 545 213 560T167 576H127V630H167Q197 630 210 645T224 691V699Q224 734 212 748T172 763Q143 763 130 749T118 707V701H50V714Q50 764 78 790T171 817Z" horiz-adv-x="342" unicode="³"/>
			<glyph d="M122 723H227L113 590H40Z" horiz-adv-x="267" unicode="´"/>
			<glyph d="M65 514H150V182Q150 110 173 81T252 52Q311 52 344 84T378 194V514H463V0H386L383 78Q364 29 332 8T250 -13Q212 -13 187 1T150 50V-146H65Z" horiz-adv-x="528" unicode="µ"/>
			<glyph d="M215 710H473V-150H404V637H317V-150H248V317H215Q150 317 113 335T59 393T43 505V531Q43 598 59 637T113 693T215 710Z" horiz-adv-x="547" unicode="¶"/>
			<glyph d="M66 405H158V294H66Z" horiz-adv-x="224" unicode="·"/>
			<glyph d="M122 -50H195L134 -182H41Z" horiz-adv-x="235" unicode="¸"/>
			<glyph d="M87 810H147V384H75V728H19V790H63Q75 790 80 794T87 810Z" horiz-adv-x="204" unicode="¹"/>
			<glyph d="M168 720Q220 720 249 704T292 654T305 557V542Q305 480 292 445T249 395T168 380Q117 380 88 395T46 446T33 542V557Q33 618 46 653T88 704T168 720ZM168 668Q129 668 115 643T101 555V542Q101 479 115 455T168 431Q196 431 211 441T231 475T237 542V555Q237 619 223 643T168 668Z" horiz-adv-x="338" unicode="º"/>
			<glyph d="M48 472H121L245 263V257L121 48H48L164 260ZM215 472H288L412 263V257L288 48H215L331 260Z" horiz-adv-x="468" unicode="»"/>
			<glyph d="M87 710H147V284H75V628H19V690H63Q75 690 80 694T87 710ZM463 729H534L131 -19H60ZZM507 426H578V156H623V98H578V0H506V98H340V146ZM506 331L402 156H506Z" horiz-adv-x="655" unicode="¼"/>
			<glyph d="M87 710H147V284H75V628H19V690H63Q75 690 80 694T87 710ZM463 729H534L131 -19H60ZZM546 433Q610 433 638 406T666 323Q666 281 648 248T587 162L508 62H674V0H415V47L531 195Q568 243 582 269T597 323Q597 351 585 364T546 377Q514 377 501 361T489 312V292H422V313Q422 376 449 404T546 433Z" horiz-adv-x="715" unicode="½"/>
			<glyph d="M171 710Q237 710 265 683T293 601V591Q293 520 239 497Q301 478 301 398V387Q301 328 271 299T170 270Q98 270 69 297T41 389V402H116V394Q116 355 127 339T172 324Q202 324 214 340T226 395V400Q226 438 213 453T167 469H127V523H167Q197 523 210 538T224 584V592Q224 627 212 641T172 656Q143 656 130 642T118 600V594H50V607Q50 657 78 683T171 710ZM583 729H654L251 -19H180ZZM627 426H698V156H743V98H698V0H626V98H460V146ZM626 331L522 156H626Z" horiz-adv-x="775" unicode="¾"/>
			<glyph d="M193 514H284V403H193ZM204 311H270Q272 283 272 266Q272 210 259 174T230 119T185 78Q151 52 135 28T119 -42Q119 -100 142 -122T227 -145Q291 -145 315 -121T340 -33V-20H422V-33Q422 -100 403 -138T342 -192T227 -209Q154 -209 112 -192T51 -138T33 -42Q33 4 44 34T73 81T119 119Q147 139 164 156T192 203T204 278Z" horiz-adv-x="445" unicode="¿"/>
			<glyph d="M209 710H320L520 0H426L380 177H148L102 0H10ZM264 629L166 247H362ZM141 864H251L328 760H249Z" horiz-adv-x="530" unicode="À"/>
			<glyph d="M209 710H320L520 0H426L380 177H148L102 0H10ZM264 629L166 247H362ZM278 864H388L280 760H201Z" horiz-adv-x="530" unicode="Á"/>
			<glyph d="M209 710H320L520 0H426L380 177H148L102 0H10ZM264 629L166 247H362ZM230 864H300L410 760H320L266 815L210 760H120Z" horiz-adv-x="530" unicode="Â"/>
			<glyph d="M209 710H320L520 0H426L380 177H148L102 0H10ZM264 629L166 247H362ZM200 861Q222 861 239 854T277 835Q293 826 302 822T322 818Q350 818 350 852V860H410V843Q410 758 329 758Q305 758 288 765T249 785Q236 794 226 798T208 802Q180 802 180 768V760H120V776Q120 861 200 861Z" horiz-adv-x="530" unicode="Ã"/>
			<glyph d="M209 710H320L520 0H426L380 177H148L102 0H10ZM264 629L166 247H362ZM143 847H225V760H143ZM305 847H387V760H305Z" horiz-adv-x="530" unicode="Ä"/>
			<glyph d="M264 866Q306 866 332 840T359 774Q359 724 323 699L520 0H426L380 177H148L102 0H10L206 699Q171 724 171 774Q171 815 196 840T264 866ZM264 812Q248 812 237 801T226 774Q226 757 236 746T264 736Q281 736 292 746T303 774Q303 791 292 801T264 812ZM264 629L166 247H362Z" horiz-adv-x="530" unicode="Å"/>
			<glyph d="M283 710H689V638H451V400H662V328H451V72H699V0H361V177H168L103 0H10ZM338 639L194 247H361V639Z" horiz-adv-x="735" unicode="Æ"/>
			<glyph d="M278 723Q353 723 399 701T468 626T491 480V478H397V480Q397 577 368 614T278 652Q224 652 196 627T158 540T147 360V350Q147 231 158 169T196 83T278 58Q324 58 351 76T391 137T404 257V260H497V257Q497 153 474 94T404 11T278 -13Q189 -13 141 18T74 125T54 342V368Q54 509 74 584T141 691T278 723ZM247 -50H320L259 -182H166Z" horiz-adv-x="548" unicode="Ç"/>
			<glyph d="M74 710H423V638H164V400H396V328H164V72H433V0H74ZM132 864H242L319 760H240Z" horiz-adv-x="469" unicode="È"/>
			<glyph d="M74 710H423V638H164V400H396V328H164V72H433V0H74ZM269 864H379L271 760H192Z" horiz-adv-x="469" unicode="É"/>
			<glyph d="M74 710H423V638H164V400H396V328H164V72H433V0H74ZM221 864H291L401 760H311L257 815L201 760H111Z" horiz-adv-x="469" unicode="Ê"/>
			<glyph d="M74 710H423V638H164V400H396V328H164V72H433V0H74ZM134 847H216V760H134ZM296 847H378V760H296Z" horiz-adv-x="469" unicode="Ë"/>
			<glyph d="M74 710H164V0H74ZM-5 864H105L182 760H103Z" horiz-adv-x="237" unicode="Ì"/>
			<glyph d="M74 710H164V0H74ZM132 864H242L134 760H55Z" horiz-adv-x="237" unicode="Í"/>
			<glyph d="M74 710H164V0H74ZM84 864H154L264 760H174L120 815L64 760H-26Z" horiz-adv-x="237" unicode="Î"/>
			<glyph d="M74 710H164V0H74ZM-3 847H79V760H-3ZM159 847H241V760H159Z" horiz-adv-x="237" unicode="Ï"/>
			<glyph d="M74 710H248Q347 710 400 680T475 577T497 368V342Q497 205 475 132T400 30T248 0H74V331H15V403H74ZM164 637V403H270V331H164V73H246Q313 73 346 97T391 179T404 350V360Q404 473 391 531T346 613T246 637Z" horiz-adv-x="551" unicode="Ð"/>
			<glyph d="M74 710H182L432 119V710H512V0H404L154 589V0H74ZM228 861Q250 861 267 854T305 835Q321 826 330 822T350 818Q378 818 378 852V860H438V843Q438 758 357 758Q333 758 316 765T277 785Q264 794 254 798T236 802Q208 802 208 768V760H148V776Q148 861 228 861Z" horiz-adv-x="585" unicode="Ñ"/>
			<glyph d="M280 723Q371 723 419 691T487 584T508 368V342Q508 201 487 125T419 18T280 -13Q190 -13 142 18T74 125T54 342V368Q54 510 74 585T142 691T280 723ZM280 652Q225 652 197 626T158 539T147 360V350Q147 232 158 170T197 83T280 58Q335 58 364 84T404 171T415 350V360Q415 477 404 538T364 626T280 652ZM157 864H267L344 760H265Z" horiz-adv-x="562" unicode="Ò"/>
			<glyph d="M280 723Q371 723 419 691T487 584T508 368V342Q508 201 487 125T419 18T280 -13Q190 -13 142 18T74 125T54 342V368Q54 510 74 585T142 691T280 723ZM280 652Q225 652 197 626T158 539T147 360V350Q147 232 158 170T197 83T280 58Q335 58 364 84T404 171T415 350V360Q415 477 404 538T364 626T280 652ZM294 864H404L296 760H217Z" horiz-adv-x="562" unicode="Ó"/>
			<glyph d="M280 723Q371 723 419 691T487 584T508 368V342Q508 201 487 125T419 18T280 -13Q190 -13 142 18T74 125T54 342V368Q54 510 74 585T142 691T280 723ZM280 652Q225 652 197 626T158 539T147 360V350Q147 232 158 170T197 83T280 58Q335 58 364 84T404 171T415 350V360Q415 477 404 538T364 626T280 652ZM246 864H316L426 760H336L282 815L226 760H136Z" horiz-adv-x="562" unicode="Ô"/>
			<glyph d="M280 723Q371 723 419 691T487 584T508 368V342Q508 201 487 125T419 18T280 -13Q190 -13 142 18T74 125T54 342V368Q54 510 74 585T142 691T280 723ZM280 652Q225 652 197 626T158 539T147 360V350Q147 232 158 170T197 83T280 58Q335 58 364 84T404 171T415 350V360Q415 477 404 538T364 626T280 652ZM216 861Q238 861 255 854T293 835Q309 826 318 822T338 818Q366 818 366 852V860H426V843Q426 758 345 758Q321 758 304 765T265 785Q252 794 242 798T224 802Q196 802 196 768V760H136V776Q136 861 216 861Z" horiz-adv-x="562" unicode="Õ"/>
			<glyph d="M280 723Q371 723 419 691T487 584T508 368V342Q508 201 487 125T419 18T280 -13Q190 -13 142 18T74 125T54 342V368Q54 510 74 585T142 691T280 723ZM280 652Q225 652 197 626T158 539T147 360V350Q147 232 158 170T197 83T280 58Q335 58 364 84T404 171T415 350V360Q415 477 404 538T364 626T280 652ZM159 847H241V760H159ZM321 847H403V760H321Z" horiz-adv-x="562" unicode="Ö"/>
			<glyph d="M141 515L264 392L386 514L439 461L317 339L440 216L388 164L265 287L139 161L87 214L212 339L89 462Z" unicode="×"/>
			<glyph d="M487 741H558L479 613Q508 537 508 368V342Q508 201 487 125T419 18T280 -13Q224 -13 185 -2T121 35L75 -40H3L85 92Q54 170 54 342V368Q54 510 74 585T142 691T280 723Q339 723 378 711T444 671ZM280 652Q225 652 197 626T158 539T147 360V350Q147 262 153 202L391 586Q376 621 349 636T280 652ZM409 501L173 119Q188 86 213 72T280 58Q335 58 364 84T404 171T415 350V360Q415 444 409 501Z" horiz-adv-x="562" unicode="Ø"/>
			<glyph d="M71 710H162V247Q162 172 173 132T210 75T284 58Q332 58 358 75T395 132T406 247V710H497V253Q497 148 478 91T413 11T284 -13Q200 -13 154 11T90 91T71 253ZM160 864H270L347 760H268Z" horiz-adv-x="568" unicode="Ù"/>
			<glyph d="M71 710H162V247Q162 172 173 132T210 75T284 58Q332 58 358 75T395 132T406 247V710H497V253Q497 148 478 91T413 11T284 -13Q200 -13 154 11T90 91T71 253ZM297 864H407L299 760H220Z" horiz-adv-x="568" unicode="Ú"/>
			<glyph d="M71 710H162V247Q162 172 173 132T210 75T284 58Q332 58 358 75T395 132T406 247V710H497V253Q497 148 478 91T413 11T284 -13Q200 -13 154 11T90 91T71 253ZM249 864H319L429 760H339L285 815L229 760H139Z" horiz-adv-x="568" unicode="Û"/>
			<glyph d="M71 710H162V247Q162 172 173 132T210 75T284 58Q332 58 358 75T395 132T406 247V710H497V253Q497 148 478 91T413 11T284 -13Q200 -13 154 11T90 91T71 253ZM162 847H244V760H162ZM324 847H406V760H324Z" horiz-adv-x="568" unicode="Ü"/>
			<glyph d="M5 710H101L250 357L397 710H491L293 275V0H203V275ZM261 864H371L263 760H184Z" horiz-adv-x="495" unicode="Ý"/>
			<glyph d="M74 710H164V587H238Q336 587 389 568T464 504T487 378V352Q487 270 464 225T389 161T238 143H164V0H74ZM164 515V215H239Q304 215 336 228T381 271T394 360V370Q394 428 381 458T336 502T239 515Z" horiz-adv-x="530" unicode="Þ"/>
			<glyph d="M251 723Q342 723 384 677T426 537V530Q426 476 405 436T345 378Q405 364 432 320T459 206V178Q459 92 414 46T269 0H200V70H257Q321 70 347 98T374 190V205Q374 276 348 307T257 338H223V406H239Q347 406 347 526V528Q347 603 324 632T251 662Q212 662 190 649T160 606T151 524V0H66V525Q66 629 108 676T251 723Z" horiz-adv-x="504" unicode="ß"/>
			<glyph d="M242 527Q305 527 341 510T394 454T411 351V0H336L331 83Q316 34 283 12T188 -10Q115 -10 79 25T43 138Q43 198 64 232T131 281T257 296H328V345Q328 394 319 420T292 458T240 469Q191 469 171 445T147 359H65Q69 422 87 458T143 511T242 527ZM264 240Q187 240 157 218T127 142Q127 91 148 70T218 49Q277 49 302 83T328 199V240ZM123 723H228L310 590H237Z" horiz-adv-x="473" unicode="à"/>
			<glyph d="M242 527Q305 527 341 510T394 454T411 351V0H336L331 83Q316 34 283 12T188 -10Q115 -10 79 25T43 138Q43 198 64 232T131 281T257 296H328V345Q328 394 319 420T292 458T240 469Q191 469 171 445T147 359H65Q69 422 87 458T143 511T242 527ZM264 240Q187 240 157 218T127 142Q127 91 148 70T218 49Q277 49 302 83T328 199V240ZM257 723H362L248 590H175Z" horiz-adv-x="473" unicode="á"/>
			<glyph d="M242 527Q305 527 341 510T394 454T411 351V0H336L331 83Q316 34 283 12T188 -10Q115 -10 79 25T43 138Q43 198 64 232T131 281T257 296H328V345Q328 394 319 420T292 458T240 469Q191 469 171 445T147 359H65Q69 422 87 458T143 511T242 527ZM264 240Q187 240 157 218T127 142Q127 91 148 70T218 49Q277 49 302 83T328 199V240ZM208 723H277L387 590H305L244 666L181 590H98Z" horiz-adv-x="473" unicode="â"/>
			<glyph d="M242 527Q305 527 341 510T394 454T411 351V0H336L331 83Q316 34 283 12T188 -10Q115 -10 79 25T43 138Q43 198 64 232T131 281T257 296H328V345Q328 394 319 420T292 458T240 469Q191 469 171 445T147 359H65Q69 422 87 458T143 511T242 527ZM264 240Q187 240 157 218T127 142Q127 91 148 70T218 49Q277 49 302 83T328 199V240ZM328 698H388V682Q388 590 306 590Q283 590 266 597T226 619Q201 637 186 637Q158 637 158 598V590H98V605Q98 653 119 675T178 697Q199 697 217 689T256 669Q259 667 268 661T286 653T300 651Q328 651 328 688Z" horiz-adv-x="473" unicode="ã"/>
			<glyph d="M242 527Q305 527 341 510T394 454T411 351V0H336L331 83Q316 34 283 12T188 -10Q115 -10 79 25T43 138Q43 198 64 232T131 281T257 296H328V345Q328 394 319 420T292 458T240 469Q191 469 171 445T147 359H65Q69 422 87 458T143 511T242 527ZM264 240Q187 240 157 218T127 142Q127 91 148 70T218 49Q277 49 302 83T328 199V240ZM121 677H203V590H121ZM283 677H365V590H283Z" horiz-adv-x="473" unicode="ä"/>
			<glyph d="M242 527Q305 527 341 510T394 454T411 351V0H336L331 83Q316 34 283 12T188 -10Q115 -10 79 25T43 138Q43 198 64 232T131 281T257 296H328V345Q328 394 319 420T292 458T240 469Q191 469 171 445T147 359H65Q69 422 87 458T143 511T242 527ZM264 240Q187 240 157 218T127 142Q127 91 148 70T218 49Q277 49 302 83T328 199V240ZM242 761Q282 761 307 737T332 673Q332 633 307 609T242 585Q202 585 177 609T153 673Q153 713 177 737T242 761ZM242 711Q226 711 215 700T205 673Q205 656 215 645T242 635Q259 635 270 645T281 673Q281 690 270 700T242 711Z" horiz-adv-x="473" unicode="å"/>
			<glyph d="M238 527Q292 527 326 509T379 453Q401 492 436 509T527 527Q593 527 631 503T686 425T704 279V242H412Q413 166 422 124T454 63T520 45Q567 45 588 70T616 158H700Q694 64 653 25T524 -13Q461 -13 423 8T366 77Q347 31 307 9T203 -13Q123 -13 83 23T43 138Q43 198 64 232T131 282T257 297H329V345Q329 394 320 420T293 458T241 469Q192 469 171 445T147 359H65Q69 422 87 458T142 511T238 527ZM520 470Q480 470 457 453T424 400T412 297H619Q618 393 595 431T520 470ZM264 242Q187 242 157 220T127 142Q127 91 150 68T218 45Q275 45 302 80T329 199V242Z" horiz-adv-x="748" unicode="æ"/>
			<glyph d="M236 527Q325 527 366 486T414 347H330Q326 412 304 439T236 466Q196 466 173 447T141 385T131 266V248Q131 172 140 129T172 67T235 48Q285 48 306 77T333 180H417Q412 107 393 65T337 5T235 -13Q163 -13 122 11T63 91T45 244V270Q45 366 64 422T124 502T236 527ZM202 -50H275L214 -182H121Z" horiz-adv-x="456" unicode="ç"/>
			<glyph d="M242 527Q314 527 354 503T413 426T431 280V243H131Q132 168 142 125T175 63T242 44Q293 44 314 69T343 158H427Q422 94 403 57T345 3T242 -13Q168 -13 125 11T64 91T45 244V270Q45 366 64 422T126 502T242 527ZM242 470Q202 470 178 454T144 401T131 299H346Q344 364 334 401T302 454T242 470ZM122 723H227L309 590H236Z" horiz-adv-x="474" unicode="è"/>
			<glyph d="M242 527Q314 527 354 503T413 426T431 280V243H131Q132 168 142 125T175 63T242 44Q293 44 314 69T343 158H427Q422 94 403 57T345 3T242 -13Q168 -13 125 11T64 91T45 244V270Q45 366 64 422T126 502T242 527ZM242 470Q202 470 178 454T144 401T131 299H346Q344 364 334 401T302 454T242 470ZM256 723H361L247 590H174Z" horiz-adv-x="474" unicode="é"/>
			<glyph d="M242 527Q314 527 354 503T413 426T431 280V243H131Q132 168 142 125T175 63T242 44Q293 44 314 69T343 158H427Q422 94 403 57T345 3T242 -13Q168 -13 125 11T64 91T45 244V270Q45 366 64 422T126 502T242 527ZM242 470Q202 470 178 454T144 401T131 299H346Q344 364 334 401T302 454T242 470ZM207 723H276L386 590H304L243 666L180 590H97Z" horiz-adv-x="474" unicode="ê"/>
			<glyph d="M242 527Q314 527 354 503T413 426T431 280V243H131Q132 168 142 125T175 63T242 44Q293 44 314 69T343 158H427Q422 94 403 57T345 3T242 -13Q168 -13 125 11T64 91T45 244V270Q45 366 64 422T126 502T242 527ZM242 470Q202 470 178 454T144 401T131 299H346Q344 364 334 401T302 454T242 470ZM120 677H202V590H120ZM282 677H364V590H282Z" horiz-adv-x="474" unicode="ë"/>
			<glyph d="M65 514H150V0H65ZM-12 723H93L175 590H102Z" horiz-adv-x="215" unicode="ì"/>
			<glyph d="M65 514H150V0H65ZM122 723H227L113 590H40Z" horiz-adv-x="215" unicode="í"/>
			<glyph d="M65 514H150V0H65ZM73 723H142L252 590H170L109 666L46 590H-37Z" horiz-adv-x="215" unicode="î"/>
			<glyph d="M65 514H150V0H65ZM-14 677H68V590H-14ZM148 677H230V590H148Z" horiz-adv-x="215" unicode="ï"/>
			<glyph d="M164 743Q217 715 256 686L329 742L363 705L296 653Q372 584 406 490T440 259V243Q440 147 421 91T360 11T243 -13Q169 -13 126 11T64 89T45 234V254Q45 383 86 440T224 497Q312 497 351 424Q331 489 309 530T241 611L155 544L119 583L199 643Q164 667 119 692ZM243 436Q200 436 175 417T141 359T131 250V238Q131 166 141 125T175 66T243 48Q286 48 310 66T344 125T354 238V250Q354 319 344 359T310 417T243 436Z" horiz-adv-x="485" unicode="ð"/>
			<glyph d="M293 527Q347 527 377 510T421 457T435 356V0H351V334Q351 384 344 411T317 450T261 463Q208 463 179 431T150 321V0H65V514H142L146 435Q167 485 201 506T293 527ZM343 698H403V682Q403 590 321 590Q298 590 281 597T241 619Q216 637 201 637Q173 637 173 598V590H113V605Q113 653 134 675T193 697Q214 697 232 689T271 669Q274 667 283 661T301 653T315 651Q343 651 343 688Z" horiz-adv-x="497" unicode="ñ"/>
			<glyph d="M243 527Q318 527 360 502T421 422T440 270V244Q440 147 421 91T360 11T243 -13Q168 -13 125 11T64 91T45 244V270Q45 367 64 422T125 502T243 527ZM243 466Q199 466 175 447T141 385T131 266V248Q131 172 141 129T175 67T243 48Q286 48 310 67T344 129T354 248V266Q354 342 344 385T310 447T243 466ZM123 723H228L310 590H237Z" horiz-adv-x="485" unicode="ò"/>
			<glyph d="M243 527Q318 527 360 502T421 422T440 270V244Q440 147 421 91T360 11T243 -13Q168 -13 125 11T64 91T45 244V270Q45 367 64 422T125 502T243 527ZM243 466Q199 466 175 447T141 385T131 266V248Q131 172 141 129T175 67T243 48Q286 48 310 67T344 129T354 248V266Q354 342 344 385T310 447T243 466ZM257 723H362L248 590H175Z" horiz-adv-x="485" unicode="ó"/>
			<glyph d="M243 527Q318 527 360 502T421 422T440 270V244Q440 147 421 91T360 11T243 -13Q168 -13 125 11T64 91T45 244V270Q45 367 64 422T125 502T243 527ZM243 466Q199 466 175 447T141 385T131 266V248Q131 172 141 129T175 67T243 48Q286 48 310 67T344 129T354 248V266Q354 342 344 385T310 447T243 466ZM208 723H277L387 590H305L244 666L181 590H98Z" horiz-adv-x="485" unicode="ô"/>
			<glyph d="M243 527Q318 527 360 502T421 422T440 270V244Q440 147 421 91T360 11T243 -13Q168 -13 125 11T64 91T45 244V270Q45 367 64 422T125 502T243 527ZM243 466Q199 466 175 447T141 385T131 266V248Q131 172 141 129T175 67T243 48Q286 48 310 67T344 129T354 248V266Q354 342 344 385T310 447T243 466ZM328 698H388V682Q388 590 306 590Q283 590 266 597T226 619Q201 637 186 637Q158 637 158 598V590H98V605Q98 653 119 675T178 697Q199 697 217 689T256 669Q259 667 268 661T286 653T300 651Q328 651 328 688Z" horiz-adv-x="485" unicode="õ"/>
			<glyph d="M243 527Q318 527 360 502T421 422T440 270V244Q440 147 421 91T360 11T243 -13Q168 -13 125 11T64 91T45 244V270Q45 367 64 422T125 502T243 527ZM243 466Q199 466 175 447T141 385T131 266V248Q131 172 141 129T175 67T243 48Q286 48 310 67T344 129T354 248V266Q354 342 344 385T310 447T243 466ZM121 677H203V590H121ZM283 677H365V590H283Z" horiz-adv-x="485" unicode="ö"/>
			<glyph d="M218 551H306V453H218ZM62 377H463V303H62ZM218 227H306V129H218Z" unicode="÷"/>
			<glyph d="M412 551H475L408 453Q425 423 432 378T440 270V244Q440 147 421 91T360 11T243 -13Q157 -13 114 20L73 -40H10L78 60Q45 119 45 244V270Q45 367 64 422T125 502T243 527Q329 527 373 494ZM243 466Q199 466 175 447T141 385T131 266V248Q131 188 137 147L328 427Q302 466 243 466ZM348 364L158 86Q171 66 192 57T243 48Q286 48 310 67T344 129T354 248V266Q354 325 348 364Z" horiz-adv-x="485" unicode="ø"/>
			<glyph d="M62 514H146V182Q146 131 153 103T180 63T237 51Q290 51 318 83T347 193V514H432V0H355L351 79Q331 29 296 8T205 -13Q151 -13 120 3T75 57T62 158ZM127 723H232L314 590H241Z" horiz-adv-x="497" unicode="ù"/>
			<glyph d="M62 514H146V182Q146 131 153 103T180 63T237 51Q290 51 318 83T347 193V514H432V0H355L351 79Q331 29 296 8T205 -13Q151 -13 120 3T75 57T62 158ZM261 723H366L252 590H179Z" horiz-adv-x="497" unicode="ú"/>
			<glyph d="M62 514H146V182Q146 131 153 103T180 63T237 51Q290 51 318 83T347 193V514H432V0H355L351 79Q331 29 296 8T205 -13Q151 -13 120 3T75 57T62 158ZM212 723H281L391 590H309L248 666L185 590H102Z" horiz-adv-x="497" unicode="û"/>
			<glyph d="M62 514H146V182Q146 131 153 103T180 63T237 51Q290 51 318 83T347 193V514H432V0H355L351 79Q331 29 296 8T205 -13Q151 -13 120 3T75 57T62 158ZM125 677H207V590H125ZM287 677H369V590H287Z" horiz-adv-x="497" unicode="ü"/>
			<glyph d="M6 514H94L206 109L320 514H406L223 -76Q208 -125 194 -150T158 -187T95 -199H63V-128H80Q108 -128 121 -117T144 -75L169 4ZM220 723H325L211 590H138Z" horiz-adv-x="413" unicode="ý"/>
			<glyph d="M66 710H151V441Q173 488 205 507T290 527Q351 527 386 502T438 422T454 270V244Q454 147 438 91T386 11T290 -13Q239 -13 206 6T151 73V-196H66ZM261 463Q210 463 180 430T151 327V186Q151 115 180 83T261 51Q302 51 325 69T359 131T370 251V262Q370 339 359 382T325 444T261 463Z" horiz-adv-x="499" unicode="þ"/>
			<glyph d="M6 514H94L206 109L320 514H406L223 -76Q208 -125 194 -150T158 -187T95 -199H63V-128H80Q108 -128 121 -117T144 -75L169 4ZM84 677H166V590H84ZM246 677H328V590H246Z" horiz-adv-x="413" unicode="ÿ"/>
			<glyph d="M65 514H150V0H65Z" horiz-adv-x="215" unicode="ı"/>
			<glyph d="M74 710H164V425L258 488V414L164 351V79H399V0H74V291L0 241V315L74 365Z" horiz-adv-x="425" unicode="Ł"/>
			<glyph d="M66 710H151V439L217 492V424L151 372V0H66V304L0 252V319L66 372Z" horiz-adv-x="217" unicode="ł"/>
			<glyph d="M261 723Q314 723 351 704T408 644V710H744V638H496V400H717V328H496V72H754V0H408V66Q388 24 351 5T261 -13Q182 -13 138 18T74 126T54 342V368Q54 507 74 583T138 691T261 723ZM277 652Q224 652 196 626T158 538T147 360V350Q147 233 158 171T196 84T277 58Q330 58 357 83T395 170T406 350V360Q406 478 395 539T357 626T277 652Z" horiz-adv-x="790" unicode="Œ"/>
			<glyph d="M241 527Q357 527 398 440Q439 527 553 527Q623 527 663 503T722 426T740 280V243H439Q440 167 450 125T483 64T550 45Q602 45 623 70T651 158H736Q731 94 711 57T654 3T553 -13Q496 -13 457 8T397 74Q376 29 337 8T242 -13Q168 -13 125 11T64 91T45 244V270Q45 367 64 422T125 502T241 527ZM550 470Q491 470 466 432T439 299H654Q653 364 643 400T610 453T550 470ZM243 466Q199 466 175 447T141 385T131 266V248Q131 172 141 129T175 67T243 48Q287 48 311 67T345 129T355 248V266Q355 342 345 385T311 447T243 466Z" horiz-adv-x="783" unicode="œ"/>
			<glyph d="M258 723Q330 723 371 705T430 650T448 547V528H365V547Q365 604 340 629T255 655Q197 655 171 629T145 551Q145 512 157 488T190 451T246 424L292 406Q296 405 300 403T311 399Q361 379 391 359T443 299T465 190Q465 85 417 36T253 -13Q174 -13 129 8T65 74T46 192V224H131V195Q131 122 159 88T257 55Q324 55 351 85T378 177Q378 230 361 259T323 299T252 330L203 349Q156 368 126 387T77 443T57 540Q57 635 104 679T258 723ZM112 864H202L258 809L312 864H402L292 760H222Z" horiz-adv-x="511" unicode="Š"/>
			<glyph d="M215 527Q276 527 311 513T361 471T376 393V380H300V392Q300 433 280 450T214 468Q165 468 144 450T124 394Q124 368 134 353T161 331T210 312L254 298Q306 280 331 266T375 223T393 139Q393 59 351 23T215 -13Q117 -13 77 22T37 139V163H115V144Q115 91 138 68T217 46Q269 46 291 67T313 135Q313 169 300 187T268 214T204 237L161 251Q123 263 99 277T60 317T45 389Q45 460 85 493T215 527ZM70 723H153L216 647L277 723H359L249 590H180Z" horiz-adv-x="430" unicode="š"/>
			<glyph d="M5 710H101L250 357L397 710H491L293 275V0H203V275ZM126 847H208V760H126ZM288 847H370V760H288Z" horiz-adv-x="495" unicode="Ÿ"/>
			<glyph d="M53 710H424V649L135 73H442V0H36V61L325 637H53ZM92 864H182L238 809L292 864H382L272 760H202Z" horiz-adv-x="473" unicode="Ž"/>
			<glyph d="M45 514H363V459L122 66H374V0H27V55L268 448H45ZM56 723H139L202 647L263 723H345L235 590H166Z" horiz-adv-x="397" unicode="ž"/>
			<glyph d="M386 710H475V642H401Q375 642 362 634T344 608T331 552L308 414H457V349H298L231 -56Q222 -115 209 -146T169 -191T92 -206H22V-138H77Q103 -138 115 -130T134 -104T147 -48L212 349H75V414H223L247 559Q256 618 269 649T309 695T386 710Z" unicode="ƒ"/>
			<glyph d="M150 723H219L329 590H247L186 666L123 590H40Z" horiz-adv-x="369" unicode="ˆ"/>
			<glyph d="M40 723H123L186 647L247 723H329L219 590H150Z" horiz-adv-x="369" unicode="ˇ"/>
			<glyph d="M40 655H292V590H40Z" horiz-adv-x="332" unicode="ˉ"/>
			<glyph d="M40 722H102Q102 643 177 643Q253 643 253 722H315Q315 658 279 621T177 585Q110 585 75 621T40 722Z" horiz-adv-x="355" unicode="˘"/>
			<glyph d="M40 675H126V590H40Z" horiz-adv-x="166" unicode="˙"/>
			<glyph d="M129 758Q169 758 194 734T219 670Q219 630 194 606T129 582Q89 582 64 606T40 670Q40 710 64 734T129 758ZM129 708Q113 708 102 697T92 670Q92 653 102 642T129 632Q146 632 157 642T168 670Q168 687 157 697T129 708Z" horiz-adv-x="259" unicode="˚"/>
			<glyph d="M127 10H171Q139 -21 126 -43T113 -89Q113 -134 164 -134Q189 -134 210 -127V-182Q178 -195 147 -195Q96 -195 68 -174T40 -113Q40 -49 127 10Z" horiz-adv-x="250" unicode="˛"/>
			<glyph d="M270 698H330V682Q330 590 248 590Q225 590 208 597T168 619Q143 637 128 637Q100 637 100 598V590H40V605Q40 653 61 675T120 697Q141 697 159 689T198 669Q201 667 210 661T228 653T242 651Q270 651 270 688Z" horiz-adv-x="370" unicode="˜"/>
			<glyph d="M106 723H210L108 590H40ZM249 723H353L239 590H171Z" horiz-adv-x="393" unicode="˝"/>
			<glyph d="M-227 723H-122L-40 590H-113Z" horiz-adv-x="0" unicode="̀"/>
			<glyph d="M-145 723H-40L-154 590H-227Z" horiz-adv-x="0" unicode="́"/>
			<glyph d="M-219 723H-150L-40 590H-122L-183 666L-246 590H-329Z" horiz-adv-x="0" unicode="̂"/>
			<glyph d="M-100 698H-40V682Q-40 590 -122 590Q-145 590 -162 597T-202 619Q-227 637 -242 637Q-270 637 -270 598V590H-330V605Q-330 653 -308 675T-250 697Q-229 697 -211 689T-172 669Q-169 667 -159 661T-142 653T-128 651Q-100 651 -100 688Z" horiz-adv-x="0" unicode="̃"/>
			<glyph d="M-292 655H-40V590H-292Z" horiz-adv-x="0" unicode="̄"/>
			<glyph d="M-315 722H-253Q-253 643 -178 643Q-102 643 -102 722H-40Q-40 658 -75 621T-178 585Q-245 585 -280 621T-315 722Z" horiz-adv-x="0" unicode="̆"/>
			<glyph d="M-126 675H-40V590H-126Z" horiz-adv-x="0" unicode="̇"/>
			<glyph d="M-285 677H-203V590H-285ZM-123 677H-41V590H-123Z" horiz-adv-x="0" unicode="̈"/>
			<glyph d="M-130 761Q-90 761 -65 737T-40 673Q-40 633 -65 609T-130 585Q-170 585 -194 609T-219 673Q-219 713 -194 737T-130 761ZM-130 711Q-146 711 -156 700T-167 673Q-167 656 -156 645T-130 635Q-113 635 -102 645T-91 673Q-91 690 -102 700T-130 711Z" horiz-adv-x="0" unicode="̊"/>
			<glyph d="M-287 723H-183L-285 590H-353ZM-144 723H-40L-154 590H-222Z" horiz-adv-x="0" unicode="̋"/>
			<glyph d="M-329 723H-246L-183 647L-122 723H-40L-150 590H-219Z" horiz-adv-x="0" unicode="̌"/>
			<glyph d="M-113 -50H-40L-101 -182H-194Z" horiz-adv-x="0" unicode="̧"/>
			<glyph d="M-123 10H-79Q-111 -21 -124 -43T-137 -89Q-137 -134 -86 -134Q-61 -134 -40 -127V-182Q-72 -195 -103 -195Q-154 -195 -182 -174T-210 -113Q-210 -49 -123 10Z" horiz-adv-x="0" unicode="̨"/>
			<glyph d="M284 723Q374 723 422 692T491 586T512 371V345Q512 263 501 211T465 127T395 72H524V0H308V75Q350 91 373 118T408 199T419 350V360Q419 477 407 538T367 626T284 652Q229 652 200 626T161 538T150 360V350Q150 253 160 199T194 118T260 75V0H45V72H173Q128 95 103 127T67 211T57 345V371Q57 511 77 586T145 692T284 723Z" horiz-adv-x="568" unicode="Ω"/>
			<glyph d="M65 514H150V182Q150 110 173 81T252 52Q311 52 344 84T378 194V514H463V0H386L383 78Q364 29 332 8T250 -13Q212 -13 187 1T150 50V-146H65Z" horiz-adv-x="528" unicode="μ"/>
			<glyph d="M10 514H494V438H405V143Q405 102 415 86T450 71H482V-5H426Q371 -5 348 23T326 122V438H185L139 0H60L108 438H10Z" horiz-adv-x="514" unicode="π"/>
			<glyph d="M50 352H440V277H50Z" horiz-adv-x="490" unicode="–"/>
			<glyph d="M50 352H726V277H50Z" horiz-adv-x="776" unicode="—"/>
			<glyph d="M124 710H142V667H132Q112 667 103 657T94 625V597H137V486H45V630Q45 675 65 692T124 710Z" horiz-adv-x="183" unicode="‘"/>
			<glyph d="M45 710H137V566Q137 521 117 503T59 486H40V529H51Q71 529 80 539T89 571V599H45Z" horiz-adv-x="183" unicode="’"/>
			<glyph d="M45 111H137V-33Q137 -78 117 -95T59 -113H40V-70H51Q71 -70 80 -60T89 -28V0H45Z" horiz-adv-x="183" unicode="‚"/>
			<glyph d="M124 710H142V667H132Q112 667 103 657T94 625V597H137V486H45V630Q45 675 65 692T124 710ZM270 710H288V667H278Q258 667 249 657T240 625V597H283V486H191V630Q191 675 211 692T270 710Z" horiz-adv-x="329" unicode="“"/>
			<glyph d="M45 710H137V566Q137 521 117 503T59 486H40V529H51Q71 529 80 539T89 571V599H45ZM191 710H283V566Q283 521 263 503T205 486H186V529H197Q217 529 226 539T235 571V599H191Z" horiz-adv-x="329" unicode="”"/>
			<glyph d="M45 111H137V-33Q137 -78 117 -95T59 -113H40V-70H51Q71 -70 80 -60T89 -28V0H45ZM191 111H283V-33Q283 -78 263 -95T205 -113H186V-70H197Q217 -70 226 -60T235 -28V0H191Z" horiz-adv-x="329" unicode="„"/>
			<glyph d="M168 710H249V524H377V450H249V-124H168V450H40V524H168Z" horiz-adv-x="416" unicode="†"/>
			<glyph d="M168 710H249V524H377V450H249V136H377V62H249V-124H168V62H40V136H168V450H40V524H168Z" horiz-adv-x="416" unicode="‡"/>
			<glyph d="M212 494Q267 494 303 458T339 367Q339 312 303 276T212 240Q157 240 121 276T85 367Q85 422 121 458T212 494Z" horiz-adv-x="423" unicode="•"/>
			<glyph d="M557 111H649V0H557ZM311 111H403V0H311ZM66 111H158V0H66Z" horiz-adv-x="715" unicode="…"/>
			<glyph d="M156 723Q208 723 235 706T274 648T286 531V516Q286 440 274 399T235 340T156 323Q104 323 76 340T36 399T25 516V531Q25 607 36 648T76 706T156 723ZM505 720H573L190 -10H123ZM156 666Q132 666 120 654T103 614T99 525V520Q99 461 103 432T120 393T156 382Q180 382 191 393T207 432T212 520V525Q212 585 207 614T191 654T156 666ZM541 387Q593 387 620 369T659 311T671 194V179Q671 103 659 62T620 4T541 -13Q489 -13 461 4T421 62T409 179V194Q409 270 421 311T461 369T541 387ZM847 387Q899 387 927 369T966 311T978 194V179Q978 103 966 62T927 4T847 -13Q795 -13 767 4T727 62T715 179V194Q715 269 727 310T767 369T847 387ZM541 328Q516 328 504 317T487 277T483 189V184Q483 125 487 96T504 55T541 44Q565 44 576 55T592 96T597 184V189Q597 248 592 277T576 317T541 328ZM847 328Q823 328 811 317T794 277T789 189V184Q789 125 794 96T811 55T847 44Q871 44 883 55T899 96T904 184V189Q904 248 899 277T883 317T847 328Z" horiz-adv-x="1002" unicode="‰"/>
			<glyph d="M180 472H253L137 260L253 48H180L56 257V263Z" horiz-adv-x="301" unicode="‹"/>
			<glyph d="M48 472H121L245 263V257L121 48H48L164 260Z" horiz-adv-x="301" unicode="›"/>
			<glyph d="M241 729H312L-91 -19H-162ZZ" horiz-adv-x="150" unicode="⁄"/>
			<glyph d="M284 723Q360 723 402 701T465 626T488 477H399Q397 551 386 588T352 641T284 656Q244 656 220 640T185 583T170 468H324L314 403H168V364V346V318H299L289 253H170Q173 172 184 129T219 70T284 54Q326 54 349 71T383 131T398 255H487Q482 151 461 93T398 11T284 -13Q212 -13 169 11T106 92T80 253H17V318H78V342V368V403H17V468H81Q87 567 108 622T171 700T284 723Z" unicode="€"/>
			<glyph d="M278 723Q341 723 375 686T410 574Q410 481 357 409T221 302V168Q221 111 240 86T301 61Q337 61 358 82T382 161H445Q441 73 403 31T288 -10Q219 -10 177 29T136 166V275Q93 259 36 245V307Q72 316 136 338V572Q136 723 278 723ZM281 662Q245 662 233 642T221 572V368Q340 431 340 571Q340 622 326 642T281 662Z" horiz-adv-x="485" unicode="ℓ"/>
			<glyph d="M15 710H225V662H147V358H92V662H15ZM268 710H347L422 447L497 710H573V358H522V653L437 358H401L315 654V358H268Z" horiz-adv-x="637" unicode="™"/>
			<glyph d="M284 723Q374 723 422 692T491 586T512 371V345Q512 263 501 211T465 127T395 72H524V0H308V75Q350 91 373 118T408 199T419 350V360Q419 477 407 538T367 626T284 652Q229 652 200 626T161 538T150 360V350Q150 253 160 199T194 118T260 75V0H45V72H173Q128 95 103 127T67 211T57 345V371Q57 511 77 586T145 692T284 723Z" horiz-adv-x="568" unicode="Ω"/>
			<glyph d="M296 512Q366 512 422 480T511 388T543 249H160V98Q182 72 219 54T296 37Q340 37 370 49T422 84T468 145L513 116Q473 53 425 19T296 -14Q219 -14 163 22T78 119T49 249Q49 336 85 395T177 483T296 512ZM296 462Q211 462 160 404V299H433V411Q412 433 376 447T296 462Z" horiz-adv-x="592" unicode="℮"/>
			<glyph d="M257 723Q338 723 384 684T449 571T468 378V246Q468 121 420 54T262 -13Q155 -13 106 42T58 208V224Q58 434 238 434Q337 434 380 370V396Q380 488 368 542T328 623T251 649Q216 649 185 635T120 596L80 658Q163 723 257 723ZM255 365Q194 365 171 328T148 216V205Q148 129 172 92T263 55Q327 55 353 100T379 214V221Q379 290 348 327T255 365Z" unicode="∂"/>
			<glyph d="M210 710H320L521 0H10ZM264 627L121 78H407Z" horiz-adv-x="531" unicode="∆"/>
			<glyph d="M74 710H504V-100H414V631H164V-100H74Z" horiz-adv-x="578" unicode="∏"/>
			<glyph d="M58 710H429V637H153L357 306L153 -25H429V-98H58V-37L269 306L58 649Z" horiz-adv-x="481" unicode="∑"/>
			<glyph d="M62 377H463V303H62Z" unicode="−"/>
			<glyph d="M245 729H316L7 -19H-65Z" horiz-adv-x="251" unicode="∕"/>
			<glyph d="M66 405H158V294H66Z" horiz-adv-x="224" unicode="∙"/>
			<glyph d="M420 710H506L313 0H204L104 369H20V443H163L258 64Z" horiz-adv-x="506" unicode="√"/>
			<glyph d="M145 452Q177 452 205 434T262 386Q321 452 381 452Q429 452 457 423T486 341Q486 287 457 258T381 229Q321 229 262 295Q234 264 205 246T145 229Q97 229 68 258T40 341Q40 393 69 422T145 452ZM147 389Q125 389 114 376T104 341Q104 319 114 305T147 292Q165 292 183 304T222 341Q200 364 182 376T147 389ZM378 389Q348 389 303 341Q347 292 378 292Q401 292 411 305T422 341Q422 362 411 375T378 389Z" unicode="∞"/>
			<glyph d="M230 710H299V639H245Q206 639 190 620T175 551V-46Q175 -129 143 -162T36 -196H-22V-125H21Q61 -125 76 -106T91 -38V559Q91 641 122 675T230 710Z" horiz-adv-x="299" unicode="∫"/>
			<glyph d="M159 492Q188 492 214 483T272 459Q276 457 293 449T324 438T349 435Q370 435 377 444T385 477V491H454V459Q454 410 431 389T365 368Q335 368 309 377T249 402Q223 414 207 420T176 426Q156 426 148 416T140 383V369H72V401Q72 450 94 471T159 492ZM159 307Q188 307 214 298T272 274Q300 261 316 255T349 249Q370 249 377 258T385 292V306H454V273Q454 224 431 203T365 182Q335 182 309 191T249 216Q223 228 207 234T176 240Q156 240 148 230T140 197V183H72V216Q72 265 94 286T159 307Z" unicode="≈"/>
			<glyph d="M367 582H433L378 484H450V410H336L256 270H450V196H214L159 98H93L148 196H76V270H190L270 410H76V484H312Z" unicode="≠"/>
			<glyph d="M450 542V464L153 337L450 210V132L76 300V374ZM62 80H463V7H62Z" unicode="≤"/>
			<glyph d="M76 542L450 374V300L76 132V210L373 337L76 464ZM62 80H463V7H62Z" unicode="≥"/>
			<glyph d="M225 710H301L485 355L301 0H225L39 355ZM263 624L125 355L263 85L399 355Z" horiz-adv-x="524" unicode="◊"/>
			<glyph d="M221 710H273V644H236Q196 644 181 624T166 552V514H330V559Q330 641 361 675T469 710H538V644H484Q444 644 429 624T414 552V514H530V449H414V0H330V449H166V0H81V449H10V514H81V559Q81 642 113 676T221 710Z" horiz-adv-x="534" unicode="ﬀ"/>
			<glyph d="M221 710H269V644H236Q196 644 181 624T166 552V514H261V449H166V0H81V449H10V514H81V559Q81 642 113 676T221 710ZM329 688H415V599H329ZM330 514H414V0H330Z" horiz-adv-x="480" unicode="ﬁ"/>
			<glyph d="M221 710H269V644H236Q196 644 181 624T166 552V514H261V449H166V0H81V449H10V514H81V559Q81 642 113 676T221 710ZM330 710H414V0H330Z" horiz-adv-x="481" unicode="ﬂ"/>
		</font>
</defs>
</svg>
