<?xml version="1.0" encoding="UTF-8"?>
<svg height="100%" width="100%" xmlns="http://www.w3.org/2000/svg">
	<defs>
		<font horiz-adv-x="554" id="web">
			<font-face alphabetic="0" ascent="950" descent="-250" font-family="" panose-1="2 11 9 6 4 7 2 4 2 4"/>
			<missing-glyph d="M82 710H542V0H82ZM204 605V105H420V605Z" horiz-adv-x="624"/>
			<glyph d="" horiz-adv-x="259" unicode=" "/>
			<glyph d="M58 710H212V617L186 230H84L58 617ZM64 155H205V0H64Z" horiz-adv-x="270" unicode="!"/>
			<glyph d="M43 710H174L160 407H57ZM231 710H361L348 407H245Z" horiz-adv-x="405" unicode="&quot;"/>
			<glyph d="M182 710H309L284 534H368L393 710H519L494 534H572V425H479L460 292H541V183H445L419 0H293L319 183H235L209 0H82L108 183H22V292H123L142 425H53V534H157ZM269 425L250 292H334L353 425Z" horiz-adv-x="594" unicode="#"/>
			<glyph d="M220 788H339V719Q428 710 464 666T500 528V513H354V528Q354 574 337 594T278 614Q238 614 220 595T202 540Q202 512 213 494T243 467T295 446L333 432Q395 411 429 392T490 329T517 209Q517 104 476 53T339 -8V-108H220V-9Q153 -2 113 22T57 91T40 211V238H188V214Q188 150 208 123T282 96Q328 96 347 118T366 186Q366 222 352 242T319 272T257 298L217 313Q161 334 128 352T73 411T50 522Q50 615 90 661T220 718Z" unicode="$"/>
			<glyph d="M528 724H637L251 -14H142ZM171 721Q230 721 261 703T306 644T319 524V509Q319 431 306 389T261 329T171 312Q112 312 80 329T34 389T21 509V524Q21 601 34 643T80 703T171 721ZM171 640Q155 640 147 632T137 598T134 518V513Q134 458 137 433T147 401T171 393Q187 393 194 401T204 433T207 513V518Q207 573 204 598T194 632T171 640ZM608 398Q667 398 698 380T743 321T756 201V186Q756 108 743 66T698 6T608 -11Q549 -11 517 6T471 66T458 186V201Q458 279 471 321T517 380T608 398ZM608 317Q591 317 583 309T573 276T570 196V191Q570 136 573 111T583 78T608 70Q624 70 631 78T641 111T644 191V196Q644 251 641 276T631 309T608 317Z" horiz-adv-x="777" unicode="%"/>
			<glyph d="M274 721Q366 721 409 682T452 578Q452 519 421 476T328 381L413 256Q417 281 417 321V398H548V354Q548 231 494 137L588 0H433L406 38Q336 -12 247 -12Q140 -12 87 36T34 184Q34 259 66 308T155 399Q116 456 101 491T86 569Q86 639 131 680T274 721ZM276 617Q226 617 226 564Q226 543 235 521T262 473Q292 495 307 516T322 565Q322 617 276 617ZM229 293Q208 271 198 248T189 196Q189 155 210 133T268 111Q314 111 344 128Z" horiz-adv-x="588" unicode="&amp;"/>
			<glyph d="M43 710H174L160 407H57Z" horiz-adv-x="217" unicode="'"/>
			<glyph d="M131 710H270Q188 518 188 257Q188 -5 270 -197H131Q80 -110 54 6T29 257Q29 392 55 508T131 710Z" horiz-adv-x="271" unicode="("/>
			<glyph d="M2 710H140Q190 624 216 508T242 257Q242 122 216 6T140 -197H2Q83 -4 83 257Q83 517 2 710Z" horiz-adv-x="271" unicode=")"/>
			<glyph d="M153 710H261L249 594L344 663L397 570L291 522L397 473L344 381L249 449L261 334H153L165 449L71 381L17 473L124 522L17 570L71 663L165 594Z" horiz-adv-x="415" unicode="*"/>
			<glyph d="M212 564H342V405H503V275H342V112H212V275H51V405H212Z" unicode="+"/>
			<glyph d="M54 155H195V-22Q195 -82 168 -105T85 -129H47V-66H77Q102 -66 113 -55T124 -20V0H54Z" horiz-adv-x="249" unicode=","/>
			<glyph d="M32 359H271V237H32Z" horiz-adv-x="302" unicode="-"/>
			<glyph d="M54 155H195V0H54Z" horiz-adv-x="249" unicode="."/>
			<glyph d="M189 730H328L128 -20H-11ZZ" horiz-adv-x="317" unicode="/"/>
			<glyph d="M277 721Q370 721 418 691T487 586T507 368V342Q507 199 487 124T418 19T277 -11Q184 -11 135 19T67 124T47 342V368Q47 511 67 586T135 691T277 721ZM277 597Q248 597 234 581T216 522T211 383V327Q211 232 216 188T234 128T277 113Q306 113 319 128T338 188T344 327V383Q344 477 338 521T319 581T277 597Z" unicode="0"/>
			<glyph d="M133 712H263V0H103V544H12V677H89Q110 677 120 685T133 712Z" horiz-adv-x="336" unicode="1"/>
			<glyph d="M274 721Q388 721 438 676T488 533Q488 481 471 437T426 356T344 252L247 132H497V0H42V100L217 317Q286 401 312 445T338 532Q338 568 322 584T272 601Q231 601 215 580T199 512V478H51V515Q51 589 72 634T141 700T274 721Z" horiz-adv-x="537" unicode="2"/>
			<glyph d="M274 721Q392 721 440 677T489 542V522Q489 407 403 367Q458 350 481 310T504 207V189Q504 119 481 75T408 11T271 -10Q182 -10 133 10T63 72T43 187V219H207V202Q207 147 220 126T274 106Q312 106 326 127T340 205V215Q340 267 323 287T258 308H192V424H258Q303 424 320 443T338 506V523Q338 568 324 586T275 605Q238 605 223 588T209 531V516H58V542Q58 631 106 676T274 721Z" unicode="3"/>
			<glyph d="M299 710H451V277H518V153H451V0H292V153H29V258ZM292 507L156 277H292Z" unicode="4"/>
			<glyph d="M83 710H479V577H209L201 414Q244 469 340 469Q427 469 466 417T506 250V216Q506 133 483 84T411 12T276 -11Q153 -11 101 39T50 200V213H211V208Q211 155 223 132T276 109Q316 109 329 133T342 216V242Q342 286 337 310T319 346T276 358Q229 358 206 320L64 333Z" unicode="5"/>
			<glyph d="M281 721Q391 721 442 675T496 521H338Q338 572 324 590T281 608Q252 608 238 595T218 544T212 426V392Q252 448 341 448Q429 448 469 400T509 239V216Q509 136 486 86T414 13T279 -11Q193 -11 143 17T71 102T49 254V398Q49 524 69 593T139 691T281 721ZM282 340Q240 340 226 315T213 229V207Q213 149 225 125T279 102Q308 102 322 112T340 144T345 206V229Q345 292 333 316T282 340Z" unicode="6"/>
			<glyph d="M10 710H422V602L244 0H75L253 577H10Z" horiz-adv-x="446" unicode="7"/>
			<glyph d="M279 721Q399 721 447 678T495 544V524Q495 474 473 435T406 377Q461 359 485 316T510 208V190Q510 118 489 74T418 10T279 -10Q191 -10 141 10T70 74T49 190V208Q49 274 73 316T153 377Q107 396 85 435T64 524V544Q64 605 83 643T150 701T279 721ZM279 614Q242 614 228 594T215 527V510Q215 469 229 449T279 430Q315 430 329 449T344 510V527Q344 574 330 594T279 614ZM279 324Q240 324 226 300T213 216V206Q213 144 226 120T279 97Q318 97 332 120T346 206V216Q346 277 332 300T279 324Z" horiz-adv-x="559" unicode="8"/>
			<glyph d="M278 721Q363 721 413 693T484 607T506 456V312Q506 186 485 117T415 19T273 -11Q163 -11 112 34T58 189H217Q217 137 230 119T275 102Q303 102 316 115T336 169T342 293V318Q302 262 215 262Q130 262 87 311T45 471V494Q45 614 98 667T278 721ZM276 608Q235 608 222 585T209 504V482Q209 418 221 393T272 369Q315 369 328 394T342 482V503Q342 561 329 584T276 608Z" unicode="9"/>
			<glyph d="M54 518H195V364H54ZM54 155H195V0H54Z" horiz-adv-x="249" unicode=":"/>
			<glyph d="M54 518H195V364H54ZM54 155H195V-22Q195 -82 168 -105T85 -129H47V-66H77Q102 -66 113 -55T124 -20V0H54Z" horiz-adv-x="249" unicode=";"/>
			<glyph d="M485 585V446L221 340L485 234V95L69 275V405Z" unicode="&lt;"/>
			<glyph d="M69 522H485V392H69ZM69 288H485V158H69Z" unicode="="/>
			<glyph d="M69 585L485 405V275L69 95V234L333 340L69 446Z" unicode="&gt;"/>
			<glyph d="M222 721Q336 721 383 679T431 543Q431 493 418 461T387 413T339 376Q314 359 299 346T275 312T265 259V230H148Q146 264 146 286Q146 333 157 365T184 415T224 454Q251 477 263 495T276 543Q276 579 264 593T223 608Q188 608 174 591T161 528V518H13V528Q13 598 33 640T99 701T222 721ZM136 155H277V0H136Z" horiz-adv-x="454" unicode="?"/>
			<glyph d="M380 645Q496 645 567 611T671 503T705 302V265Q705 188 691 144T645 82T558 63Q509 63 480 79T441 130Q430 94 405 78T344 63Q278 63 250 101T222 236V279Q222 374 249 413T339 453Q376 453 397 439T433 391L440 444H528V205Q528 171 536 158T561 146Q576 146 583 157T593 197T596 284V294Q596 393 575 446T509 522T380 544Q293 544 245 519T176 434T155 264V254Q155 147 176 89T247 8T387 -16H598V-119H397Q268 -119 191 -83T79 31T44 246V272Q44 411 78 492T185 609T380 645ZM375 372Q357 372 347 364T333 335T329 274V241Q329 201 333 180T347 152T375 144Q397 144 409 157T421 207V308Q421 345 409 358T375 372Z" horiz-adv-x="748" unicode="@"/>
			<glyph d="M180 710H391L563 0H394L369 135H199L174 0H8ZM284 590L222 257H346Z" horiz-adv-x="571" unicode="A"/>
			<glyph d="M64 710H255Q355 710 410 694T488 641T512 535V509Q512 454 492 421T428 370Q485 352 509 314T534 210V184Q534 112 510 72T431 16T275 0H64ZM228 600V421H257Q295 421 315 428T342 453T350 503V513Q350 548 342 566T315 592T257 600ZM228 313V110H272Q311 110 331 119T358 149T366 210V220Q366 257 358 277T331 305T272 313Z" horiz-adv-x="575" unicode="B"/>
			<glyph d="M285 721Q369 721 419 698T494 618T518 459V456H349V459Q349 538 334 566T285 595Q254 595 239 576T218 508T212 360V350Q212 251 218 202T239 134T285 115Q311 115 325 128T347 176T354 273V276H523V273Q523 161 499 100T424 14T285 -11Q188 -11 137 19T65 124T44 342V368Q44 511 65 586T137 691T285 721Z" horiz-adv-x="561" unicode="C"/>
			<glyph d="M64 710H275Q382 710 439 681T520 579T544 368V342Q544 204 520 131T439 29T275 0H64ZM228 582V129H267Q314 129 336 147T367 210T375 350V360Q375 454 367 499T336 563T267 582Z" horiz-adv-x="587" unicode="D"/>
			<glyph d="M64 710H450V585H228V425H429V300H228V125H460V0H64Z" horiz-adv-x="492" unicode="E"/>
			<glyph d="M64 710H450V581H228V407H429V278H228V0H64Z" horiz-adv-x="468" unicode="F"/>
			<glyph d="M291 721Q378 721 429 700T506 627T531 484V481H362V484Q362 546 345 570T291 595Q258 595 241 575T218 506T212 360V350Q212 253 218 204T241 135T291 115Q333 115 350 144T368 247V271H299V399H536V265Q536 156 511 96T434 13T291 -11Q192 -11 139 19T65 124T43 342V368Q43 511 65 586T139 691T291 721Z" horiz-adv-x="577" unicode="G"/>
			<glyph d="M64 710H228V434H382V710H546V0H382V287H228V0H64Z" horiz-adv-x="609" unicode="H"/>
			<glyph d="M64 710H228V0H64Z" horiz-adv-x="291" unicode="I"/>
			<glyph d="M302 710H470V267Q470 158 450 98T382 14T247 -11Q160 -11 112 10T45 83T25 230V256H193V234Q193 187 197 161T213 125T247 115Q269 115 281 128T297 173T302 264Z" horiz-adv-x="530" unicode="J"/>
			<glyph d="M64 710H228V399L372 710H550L374 404L571 0H387L264 279L228 248V0H64Z" horiz-adv-x="565" unicode="K"/>
			<glyph d="M64 710H228V142H422V0H64Z" horiz-adv-x="440" unicode="L"/>
			<glyph d="M64 710H297L404 255L510 710H731V0H586V548L452 0H336L202 548V0H64Z" horiz-adv-x="795" unicode="M"/>
			<glyph d="M64 710H246L421 237V710H562V0H380L205 473V0H64Z" horiz-adv-x="626" unicode="N"/>
			<glyph d="M291 721Q390 721 442 691T517 586T539 368V342Q539 199 517 124T442 19T291 -11Q192 -11 139 19T65 124T44 342V368Q44 511 65 586T139 691T291 721ZM291 595Q258 595 241 575T218 506T212 360V350Q212 253 218 204T241 135T291 115Q324 115 341 135T364 204T371 350V360Q371 456 364 505T341 575T291 595Z" horiz-adv-x="583" unicode="O"/>
			<glyph d="M64 710H262Q366 710 423 690T505 624T530 491V465Q530 380 505 333T423 266T262 247H228V0H64ZM228 582V375H259Q301 375 323 384T353 413T361 473V483Q361 523 353 543T323 573T259 582Z" horiz-adv-x="560" unicode="P"/>
			<glyph d="M291 721Q390 721 442 691T517 586T539 368V342Q539 240 527 175T490 72T421 16L533 -131H347L270 -11Q180 -8 132 24T64 130T44 342V368Q44 511 65 586T139 691T291 721ZM291 595Q258 595 241 575T218 506T212 360V350Q212 253 218 204T241 135T291 115Q324 115 341 135T364 204T371 350V360Q371 456 364 505T341 575T291 595Z" horiz-adv-x="582" unicode="Q"/>
			<glyph d="M64 710H261Q366 710 423 691T504 627T529 497V471Q529 396 508 351T439 286L543 0H369L292 259H261H228V0H64ZM228 582V387H258Q300 387 322 396T352 424T361 479V489Q361 527 353 546T323 574T258 582Z" horiz-adv-x="572" unicode="R"/>
			<glyph d="M271 721Q351 721 396 702T461 642T481 528V513H332V528Q332 567 317 585T265 603Q200 603 200 540Q200 511 210 494T237 468T285 447L320 433Q328 430 383 409T468 338T498 209Q498 128 475 80T401 10T263 -11Q176 -11 127 10T57 79T36 211V237H187V214Q187 156 205 131T269 107Q311 107 327 126T344 186Q344 223 331 244T300 275T243 299L205 314Q152 334 120 353T67 412T45 522Q45 629 97 675T271 721Z" horiz-adv-x="532" unicode="S"/>
			<glyph d="M12 710H457V568H316V0H152V568H12Z" horiz-adv-x="469" unicode="T"/>
			<glyph d="M61 710H229V255Q229 200 235 170T256 127T299 115Q327 115 342 127T363 170T369 255V710H537V267Q537 157 515 98T443 14T299 -11Q205 -11 154 14T82 98T61 267Z" horiz-adv-x="598" unicode="U"/>
			<glyph d="M2 710H176L274 155L371 710H542L376 0H168Z" horiz-adv-x="543" unicode="V"/>
			<glyph d="M6 710H166L240 154L342 710H521L623 151L698 710H847L716 0H520L427 522L333 0H137Z" horiz-adv-x="853" unicode="W"/>
			<glyph d="M14 710H187L283 493L376 710H545L377 372L553 0H381L274 247L174 0H6L181 367Z" horiz-adv-x="559" unicode="X"/>
			<glyph d="M1 710H176L270 411L364 710H535L350 253V0H186V253Z" horiz-adv-x="536" unicode="Y"/>
			<glyph d="M50 710H448V602L211 126H468V0H32V108L270 584H50Z" horiz-adv-x="494" unicode="Z"/>
			<glyph d="M64 710H294V585H219V-72H294V-197H64Z" horiz-adv-x="296" unicode="["/>
			<glyph d="M-11 730H128L328 -20H189Z" horiz-adv-x="317" unicode="\"/>
			<glyph d="M2 710H232V-197H2V-72H76V585H2Z" horiz-adv-x="296" unicode="]"/>
			<glyph d="M159 710H309L435 397H293L234 581L175 397H32Z" horiz-adv-x="468" unicode="^"/>
			<glyph d="M0 -26H358V-92H0Z" horiz-adv-x="358" unicode="_"/>
			<glyph d="M40 721H221L302 583H181Z" horiz-adv-x="342" unicode="`"/>
			<glyph d="M261 529Q335 529 377 511T439 454T458 346V0H321L312 77Q297 31 265 10T175 -10Q103 -10 69 26T35 143Q35 206 56 240T127 290T262 305H305V342Q305 396 294 414T258 432Q231 432 220 415T207 352H55Q59 418 80 456T144 512T261 529ZM275 223Q225 223 205 207T186 153Q186 119 198 104T239 89Q275 89 290 112T305 194V223Z" horiz-adv-x="510" unicode="a"/>
			<glyph d="M54 710H208V454Q230 495 259 512T335 529Q394 529 428 504T477 424T492 272V246Q492 149 477 93T428 13T335 -11Q284 -11 253 8T200 75L193 0H54ZM273 416Q240 416 224 396T208 329V189Q208 142 224 122T273 102Q298 102 312 115T332 160T338 253V266Q338 327 332 359T312 403T273 416Z" horiz-adv-x="532" unicode="b"/>
			<glyph d="M253 529Q323 529 365 510T428 448T455 331H304Q302 383 290 404T252 425Q228 425 216 411T199 365T195 273V246Q195 187 199 155T216 108T253 94Q283 94 294 118T307 206H462Q458 124 437 77T372 9T253 -11Q172 -11 126 13T60 93T40 246V272Q40 369 60 424T127 504T253 529Z" horiz-adv-x="490" unicode="c"/>
			<glyph d="M324 710H477V0H339L332 74Q309 27 278 8T197 -11Q138 -11 104 13T55 93T40 246V272Q40 369 55 424T104 504T197 529Q243 529 272 512T324 454ZM258 416Q233 416 219 403T200 358T194 266V253Q194 192 200 160T219 115T258 102Q291 102 307 122T324 189V329Q324 376 308 396T258 416Z" horiz-adv-x="532" unicode="d"/>
			<glyph d="M260 529Q342 529 388 506T454 431T475 289V230H195Q196 174 201 143T220 99T260 85Q291 85 302 103T316 168H471Q467 100 446 61T380 6T260 -11Q177 -11 129 13T61 93T40 246V272Q40 369 61 424T129 504T260 529ZM260 433Q224 433 211 407T196 314H320Q318 382 305 407T260 433Z" horiz-adv-x="512" unicode="e"/>
			<glyph d="M234 710H318V593H270Q242 593 231 580T221 532V518H312V405H221V0H68V405H8V518H68V540Q68 603 84 640T136 693T234 710Z" horiz-adv-x="321" unicode="f"/>
			<glyph d="M197 529Q248 529 278 510T331 446L339 518H477V53Q477 -43 456 -98T386 -177T252 -202Q179 -202 136 -187T72 -138T47 -47H202Q204 -79 216 -92T258 -105Q286 -105 300 -92T319 -49T324 37V76Q302 34 272 16T197 -1Q138 -1 104 23T55 103T40 255V281Q40 375 55 428T104 505T197 529ZM258 416Q233 416 219 404T200 361T194 274V261Q194 202 200 170T219 125T258 112Q291 112 307 132T324 199V329Q324 376 308 396T258 416Z" horiz-adv-x="531" unicode="g"/>
			<glyph d="M54 710H208V460Q229 497 260 513T343 529Q396 529 426 512T469 458T483 354V0H330V324Q330 376 319 396T276 416Q244 416 226 396T208 328V0H54Z" horiz-adv-x="535" unicode="h"/>
			<glyph d="M54 704H208V585H54ZM54 518H208V0H54Z" horiz-adv-x="262" unicode="i"/>
			<glyph d="M50 704H204V585H50ZM50 518H204V-30Q204 -91 189 -126T140 -176T47 -192H-18V-66H-5Q26 -66 38 -53T50 -7Z" horiz-adv-x="258" unicode="j"/>
			<glyph d="M54 710H208V309L313 518H478L341 308L492 0H328L243 196L208 166V0H54Z" horiz-adv-x="484" unicode="k"/>
			<glyph d="M54 710H208V0H54Z" horiz-adv-x="262" unicode="l"/>
			<glyph d="M341 529Q396 529 426 508T468 439Q491 488 525 508T615 529Q665 529 693 512T735 457T748 354V0H594V327Q594 377 583 396T543 416Q478 416 478 328V0H324V324Q324 375 313 395T273 416Q208 416 208 328V0H54V518H192L200 441Q221 489 253 509T341 529Z" horiz-adv-x="799" unicode="m"/>
			<glyph d="M343 529Q396 529 426 512T469 458T483 354V0H330V324Q330 376 319 396T276 416Q244 416 226 396T208 328V0H54V518H192L199 442Q221 490 254 509T343 529Z" horiz-adv-x="535" unicode="n"/>
			<glyph d="M261 529Q345 529 393 504T462 424T483 272V246Q483 149 462 93T393 13T261 -11Q178 -11 130 13T61 93T40 246V272Q40 369 61 424T130 504T261 529ZM261 425Q233 425 219 410T200 364T195 273V246Q195 186 200 154T219 108T261 94Q289 94 303 108T322 153T327 246V273Q327 333 322 364T303 410T261 425Z" horiz-adv-x="523" unicode="o"/>
			<glyph d="M335 529Q394 529 428 504T477 424T492 272V246Q492 149 477 93T428 13T335 -11Q289 -11 259 6T208 65V-192H54V518H192L199 443Q223 491 253 510T335 529ZM273 416Q240 416 224 396T208 329V189Q208 142 224 122T273 102Q298 102 312 115T332 160T338 253V266Q338 327 332 359T312 403T273 416Z" horiz-adv-x="531" unicode="p"/>
			<glyph d="M197 529Q248 529 278 510T332 444L339 518H477V-192H324V65Q302 24 272 6T197 -11Q138 -11 104 13T55 93T40 246V272Q40 369 55 424T104 504T197 529ZM258 416Q233 416 219 403T200 358T194 266V253Q194 192 200 160T219 115T258 102Q291 102 307 122T324 189V329Q324 376 308 396T258 416Z" horiz-adv-x="531" unicode="q"/>
			<glyph d="M332 529H347V379H313Q260 379 234 350T208 261V0H54V518H192L199 415Q218 475 249 502T332 529Z" horiz-adv-x="349" unicode="r"/>
			<glyph d="M229 529Q298 529 337 515T394 469T412 381V373H275V380Q275 409 264 421T226 433Q198 433 186 422T174 388Q174 370 182 360T204 345T248 331L290 318Q339 303 364 290T409 245T428 154Q428 64 380 26T227 -11Q153 -11 110 4T49 54T30 149V169H169V156Q169 116 182 101T230 86Q262 86 274 99T287 144Q287 172 269 184T212 207L193 213L157 224Q117 236 91 250T50 294T34 374Q34 459 79 494T229 529Z" horiz-adv-x="457" unicode="s"/>
			<glyph d="M68 650H221V518H307V405H221V181Q221 147 234 134T279 121H312V-5H227Q167 -5 133 11T83 62T68 159V405H8V518H68Z" horiz-adv-x="332" unicode="t"/>
			<glyph d="M52 518H205V199Q205 144 216 123T259 102Q327 102 327 191V518H481V0H342L335 75Q314 28 281 8T192 -11Q139 -11 109 6T65 61T52 165Z" horiz-adv-x="535" unicode="u"/>
			<glyph d="M9 518H169L233 121L296 518H452L329 0H132Z" horiz-adv-x="461" unicode="v"/>
			<glyph d="M8 518H153L214 118L281 518H448L515 118L576 518H715L607 0H423L362 364L300 0H116Z" horiz-adv-x="723" unicode="w"/>
			<glyph d="M7 518H172L232 354L289 518H451L323 269L459 0H294L224 180L162 0H0L135 266Z" horiz-adv-x="459" unicode="x"/>
			<glyph d="M2 518H162L233 164L301 518H459L299 -27Q280 -94 262 -128T212 -179T122 -196H70V-70H85Q121 -70 136 -61T158 -24L165 0Z" horiz-adv-x="461" unicode="y"/>
			<glyph d="M43 518H396V421L198 115H410V0H24V97L223 404H43Z" horiz-adv-x="432" unicode="z"/>
			<glyph d="M220 710H295V585H265Q239 585 229 572T219 526V339Q219 277 172 257Q219 236 219 175V-13Q219 -46 229 -59T265 -72H295V-197H220Q161 -197 127 -181T78 -131T63 -37V141Q63 167 56 176T32 186H5V328H32Q50 328 56 337T63 372V550Q63 610 78 644T127 694T220 710Z" horiz-adv-x="297" unicode="{"/>
			<glyph d="M82 750H229V-128H82Z" horiz-adv-x="312" unicode="|"/>
			<glyph d="M2 710H77Q136 710 170 694T219 644T234 550V372Q234 346 240 337T265 328H292V186H265Q247 186 240 176T234 141V-37Q234 -97 219 -131T170 -181T77 -197H2V-72H32Q58 -72 68 -59T78 -13V175Q78 236 125 257Q78 277 78 339V526Q78 559 68 572T32 585H2Z" horiz-adv-x="297" unicode="}"/>
			<glyph d="M162 426Q193 426 223 415T291 387Q317 374 332 368T361 362Q376 362 382 371T388 404V425H506V374Q506 305 476 276T391 247Q357 247 325 258T257 288Q238 297 220 304T192 311Q178 311 172 301T166 269V248H48V299Q48 367 77 396T162 426Z" unicode="~"/>
			<glyph d="" horiz-adv-x="259" unicode=" "/>
			<glyph d="M65 518H205V364H65ZM84 288H186L212 -99V-192H58V-99Z" horiz-adv-x="270" unicode="¡"/>
			<glyph d="M194 710H309V609Q383 599 417 555T459 418H304Q301 468 289 486T252 505Q229 505 217 492T201 449T197 360V351Q197 293 201 262T217 219T252 206Q273 206 283 216T298 248T305 312H464Q458 208 423 159T309 101V0H194V102Q136 110 102 137T53 217T38 352V358Q38 442 53 494T103 573T194 609Z" horiz-adv-x="490" unicode="¢"/>
			<glyph d="M307 720Q387 720 432 700T497 637T516 524V469H356V502Q356 559 345 579T305 600Q274 600 263 577T252 493V387H440V265H252V198Q252 172 248 156T235 130H534V0H26V122H39Q68 122 80 137T92 192V265H35V387H92V500Q92 578 112 626T179 697T307 720Z" unicode="£"/>
			<glyph d="M147 563L209 500Q242 511 277 511Q313 511 346 500L407 561L499 469L440 410Q453 380 453 339Q453 299 440 269L501 208L409 116L347 179Q316 167 277 167Q240 167 209 178L145 115L53 207L115 268Q102 298 102 339Q102 377 115 411L55 471ZM278 415Q245 415 224 393T203 339Q203 306 224 284T278 263Q311 263 332 284T353 339Q353 372 332 393T278 415Z" unicode="¤"/>
			<glyph d="M10 710H184L279 410L373 710H544L404 377H492V271H359L356 264V230H492V124H356V0H197V124H62V230H197V267L195 271H62V377H150Z" unicode="¥"/>
			<glyph d="M82 750H229V392H82ZM82 230H229V-128H82Z" horiz-adv-x="312" unicode="¦"/>
			<glyph d="M251 721Q320 721 360 706T417 660T435 573V564H297V572Q297 601 286 612T248 624Q220 624 208 613T197 579Q197 557 205 544T227 525T270 510L313 496Q362 479 387 466T432 422T451 337Q451 286 431 255T369 207Q402 188 420 154T438 60Q438 -29 388 -66T227 -104Q153 -104 110 -88T48 -38T30 55V76H169V62Q169 23 182 8T230 -7Q268 -7 282 6T297 51Q297 84 278 98T216 125Q198 130 193 132L159 144Q99 163 66 196T34 293Q34 347 56 379T127 426Q94 445 75 477T56 565Q56 650 101 685T251 721ZM228 386Q174 374 174 327Q174 303 182 289T205 268T249 251L276 242Q294 250 302 265T310 305Q310 330 300 345T274 368T228 386Z" horiz-adv-x="479" unicode="§"/>
			<glyph d="M45 694H171V583H45ZM229 694H355V583H229Z" horiz-adv-x="400" unicode="¨"/>
			<glyph d="M399 718Q503 718 585 671T714 541T761 355Q761 251 714 168T585 39T399 -8Q295 -8 212 39T82 168T36 355Q36 459 82 541T212 671T399 718ZM399 626Q322 626 262 591T168 495T134 355Q134 277 168 215T262 119T399 84Q475 84 535 119T629 215T663 355Q663 433 629 495T535 591T399 626ZM403 559Q477 559 509 529T542 423V413H442V423Q442 463 432 477T402 492Q383 492 374 482T361 448T357 372V350Q357 299 361 274T374 239T403 230Q427 230 436 247T445 316V327H546V316Q546 230 512 196T403 163Q344 163 312 179T268 235T255 346V376Q255 448 268 487T312 542T403 559Z" horiz-adv-x="797" unicode="©"/>
			<glyph d="M185 717Q262 717 293 691T324 600V383H223L217 428Q206 401 184 389T123 377Q73 377 49 400T26 473Q26 513 41 535T90 567T185 577H212V598Q212 628 205 637T183 646Q165 646 158 638T151 604H41Q45 667 76 692T185 717ZM193 523Q162 523 149 514T137 482Q137 464 144 456T169 449Q192 449 202 461T212 505V523Z" horiz-adv-x="361" unicode="ª"/>
			<glyph d="M161 465H287L182 260L287 55H161L41 257V263ZM382 465H508L403 260L508 55H382L262 257V263Z" horiz-adv-x="544" unicode="«"/>
			<glyph d="M42 445H494V152H364V315H42Z" unicode="¬"/>
			<glyph d="M32 359H271V237H32Z" horiz-adv-x="302" unicode="­"/>
			<glyph d="M237 718Q299 718 348 690T426 612T454 500Q454 438 426 388T348 310T237 282Q174 282 124 310T47 388T19 500Q19 562 47 612T124 690T237 718ZM237 658Q170 658 126 613T83 500Q83 432 126 387T237 342Q280 342 315 362T369 419T389 500Q389 569 346 613T237 658ZM166 621H233Q284 621 302 606T321 550V542Q321 517 313 501T289 479L325 387H266L238 471H230H221V387H166ZM221 576V516H232Q251 516 257 522T263 544V548Q263 565 257 570T232 576Z" horiz-adv-x="472" unicode="®"/>
			<glyph d="M40 674H339V583H40Z" horiz-adv-x="379" unicode="¯"/>
			<glyph d="M178 718Q246 718 288 677T330 569Q330 502 288 461T178 420Q110 420 68 461T27 569Q27 636 68 677T178 718ZM179 628Q153 628 136 611T120 569Q120 543 136 526T179 510Q205 510 221 526T237 569Q237 595 221 611T179 628Z" horiz-adv-x="358" unicode="°"/>
			<glyph d="M212 604H342V465H503V335H342V192H212V335H51V465H212ZM51 132H503V2H51Z" unicode="±"/>
			<glyph d="M178 816Q249 816 280 789T311 702Q311 670 300 643T273 595T221 529L176 474H316V384H34V452L133 571Q176 622 192 649T209 701Q209 735 176 735Q156 735 148 724T140 689V668H40V691Q40 760 70 788T178 816Z" horiz-adv-x="350" unicode="²"/>
			<glyph d="M175 816Q248 816 278 790T309 709V696Q309 630 258 605Q290 595 303 571T317 509V500Q317 434 285 406T173 379Q118 379 87 391T44 428T32 497V519H144V507Q144 478 150 467T176 457Q194 457 199 468T205 510V517Q205 545 197 555T163 565H124V643H163Q188 643 196 652T205 686V697Q205 720 199 729T176 738Q157 738 150 729T144 700V690H41V707Q41 761 71 788T175 816Z" horiz-adv-x="349" unicode="³"/>
			<glyph d="M120 721H302L161 583H40Z" horiz-adv-x="342" unicode="´"/>
			<glyph d="M54 518H208V195Q208 147 220 128T265 110Q337 110 337 198V518H490V0H352L347 55Q333 20 314 4T267 -11Q225 -11 208 30V-142H54Z" horiz-adv-x="544" unicode="µ"/>
			<glyph d="M211 710H531V-150H411V582H350V-150H230V282H211Q143 282 104 301T47 364T30 484V510Q30 585 47 628T104 691T211 710Z" horiz-adv-x="595" unicode="¶"/>
			<glyph d="M54 436H195V281H54Z" horiz-adv-x="249" unicode="·"/>
			<glyph d="M126 -49H247L211 -184H48Z" horiz-adv-x="289" unicode="¸"/>
			<glyph d="M88 810H175V384H67V699H12V788H59Q72 788 78 793T88 810Z" horiz-adv-x="224" unicode="¹"/>
			<glyph d="M185 717Q243 717 276 701T323 651T338 555V540Q338 479 323 443T276 392T185 377Q127 377 93 392T45 443T31 540V555Q31 616 45 651T93 701T185 717ZM185 639Q160 639 152 621T144 556V538Q144 490 152 472T185 455Q210 455 217 472T225 538V556Q225 605 217 622T185 639Z" horiz-adv-x="369" unicode="º"/>
			<glyph d="M35 465H162L281 263V257L162 55H35L141 260ZM256 465H383L502 263V257L383 55H256L362 260Z" horiz-adv-x="544" unicode="»"/>
			<glyph d="M88 710H175V284H67V599H12V688H59Q72 688 78 693T88 710ZM477 730H591L168 -20H54ZZM538 426H641V172H680V88H641V0H533V88H379V159ZM533 290L464 172H533Z" horiz-adv-x="707" unicode="¼"/>
			<glyph d="M88 710H175V284H67V599H12V688H59Q72 688 78 693T88 710ZM477 730H591L168 -20H54ZZM594 432Q665 432 696 405T727 318Q727 286 716 259T689 211T637 145L592 90H732V0H450V68L549 187Q592 238 608 265T625 317Q625 351 592 351Q572 351 564 340T556 305V284H456V307Q456 376 486 404T594 432Z" horiz-adv-x="766" unicode="½"/>
			<glyph d="M175 716Q248 716 278 690T309 609V596Q309 530 258 505Q290 495 303 471T317 409V400Q317 334 285 306T173 279Q118 279 87 291T44 328T32 397V419H144V407Q144 378 150 367T176 357Q194 357 199 368T205 410V417Q205 445 197 455T163 465H124V543H163Q188 543 196 552T205 586V597Q205 620 199 629T176 638Q157 638 150 629T144 600V590H41V607Q41 661 71 688T175 716ZM597 730H711L288 -20H174ZZM658 426H761V172H800V88H761V0H653V88H499V159ZM653 290L584 172H653Z" horiz-adv-x="827" unicode="¾"/>
			<glyph d="M177 518H317V364H177ZM189 288H305Q307 256 307 233Q307 186 296 154T269 103T229 64Q203 42 190 23T177 -25Q177 -60 189 -75T231 -90Q266 -90 279 -73T293 -9V1H441V-9Q441 -80 420 -122T354 -183T232 -202Q118 -202 70 -160T23 -25Q23 25 36 57T67 106T115 143Q152 167 170 190T189 260Z" horiz-adv-x="454" unicode="¿"/>
			<glyph d="M180 710H391L563 0H394L369 135H199L174 0H8ZM284 590L222 257H346ZM121 868H303L383 753H253Z" horiz-adv-x="571" unicode="À"/>
			<glyph d="M180 710H391L563 0H394L369 135H199L174 0H8ZM284 590L222 257H346ZM268 868H451L319 753H189Z" horiz-adv-x="571" unicode="Á"/>
			<glyph d="M180 710H391L563 0H394L369 135H199L174 0H8ZM284 590L222 257H346ZM216 868H355L465 753H336L286 807L235 753H106Z" horiz-adv-x="571" unicode="Â"/>
			<glyph d="M180 710H391L563 0H394L369 135H199L174 0H8ZM284 590L222 257H346ZM211 872Q235 872 254 866T299 849Q310 844 321 840T340 836Q352 836 356 843T361 866V870H454V847Q454 795 429 773T360 751Q334 751 315 757T270 775Q259 780 249 784T232 788Q220 788 215 780T211 757V753H118V776Q118 872 211 872Z" horiz-adv-x="571" unicode="Ã"/>
			<glyph d="M180 710H391L563 0H394L369 135H199L174 0H8ZM284 590L222 257H346ZM131 864H257V753H131ZM315 864H441V753H315Z" horiz-adv-x="571" unicode="Ä"/>
			<glyph d="M285 877Q335 877 366 847T397 768Q397 734 382 710H391L563 0H394L369 135H199L174 0H8L180 710H189Q174 734 174 768Q174 817 205 847T285 877ZM286 804Q270 804 260 794T250 768Q250 752 260 742T286 732Q302 732 312 742T322 768Q322 784 312 794T286 804ZM284 590L222 257H346Z" horiz-adv-x="571" unicode="Å"/>
			<glyph d="M251 710H731V585H536V425H709V300H536V125H741V0H372V135H215L174 0H8ZM356 592L253 257H372V592Z" horiz-adv-x="773" unicode="Æ"/>
			<glyph d="M285 721Q369 721 419 698T494 618T518 459V456H349V459Q349 538 334 566T285 595Q254 595 239 576T218 508T212 360V350Q212 251 218 202T239 134T285 115Q311 115 325 128T347 176T354 273V276H523V273Q523 161 499 100T424 14T285 -11Q188 -11 137 19T65 124T44 342V368Q44 511 65 586T137 691T285 721ZM226 -49H347L311 -184H148Z" horiz-adv-x="561" unicode="Ç"/>
			<glyph d="M64 710H450V585H228V425H429V300H228V125H460V0H64ZM98 868H280L360 753H230Z" horiz-adv-x="492" unicode="È"/>
			<glyph d="M64 710H450V585H228V425H429V300H228V125H460V0H64ZM245 868H428L296 753H166Z" horiz-adv-x="492" unicode="É"/>
			<glyph d="M64 710H450V585H228V425H429V300H228V125H460V0H64ZM193 868H332L442 753H313L263 807L212 753H83Z" horiz-adv-x="492" unicode="Ê"/>
			<glyph d="M64 710H450V585H228V425H429V300H228V125H460V0H64ZM108 864H234V753H108ZM292 864H418V753H292Z" horiz-adv-x="492" unicode="Ë"/>
			<glyph d="M64 710H228V0H64ZM-19 868H163L243 753H113Z" horiz-adv-x="291" unicode="Ì"/>
			<glyph d="M64 710H228V0H64ZM128 868H311L179 753H49Z" horiz-adv-x="291" unicode="Í"/>
			<glyph d="M64 710H228V0H64ZM76 868H215L325 753H196L146 807L95 753H-34Z" horiz-adv-x="291" unicode="Î"/>
			<glyph d="M64 710H228V0H64ZM-9 864H117V753H-9ZM175 864H301V753H175Z" horiz-adv-x="291" unicode="Ï"/>
			<glyph d="M64 710H275Q382 710 439 681T520 579T544 368V342Q544 204 520 131T439 29T275 0H64V307H11V432H64ZM228 582V432H303V307H228V129H267Q314 129 336 147T367 210T375 350V360Q375 454 367 499T336 563T267 582Z" horiz-adv-x="587" unicode="Ð"/>
			<glyph d="M64 710H246L421 237V710H562V0H380L205 473V0H64ZM238 872Q262 872 281 866T326 849Q337 844 348 840T367 836Q379 836 383 843T388 866V870H481V847Q481 795 456 773T387 751Q361 751 342 757T297 775Q286 780 276 784T259 788Q247 788 242 780T238 757V753H145V776Q145 872 238 872Z" horiz-adv-x="626" unicode="Ñ"/>
			<glyph d="M291 721Q390 721 442 691T517 586T539 368V342Q539 199 517 124T442 19T291 -11Q192 -11 139 19T65 124T44 342V368Q44 511 65 586T139 691T291 721ZM291 595Q258 595 241 575T218 506T212 360V350Q212 253 218 204T241 135T291 115Q324 115 341 135T364 204T371 350V360Q371 456 364 505T341 575T291 595ZM126 868H308L388 753H258Z" horiz-adv-x="583" unicode="Ò"/>
			<glyph d="M291 721Q390 721 442 691T517 586T539 368V342Q539 199 517 124T442 19T291 -11Q192 -11 139 19T65 124T44 342V368Q44 511 65 586T139 691T291 721ZM291 595Q258 595 241 575T218 506T212 360V350Q212 253 218 204T241 135T291 115Q324 115 341 135T364 204T371 350V360Q371 456 364 505T341 575T291 595ZM273 868H456L324 753H194Z" horiz-adv-x="583" unicode="Ó"/>
			<glyph d="M291 721Q390 721 442 691T517 586T539 368V342Q539 199 517 124T442 19T291 -11Q192 -11 139 19T65 124T44 342V368Q44 511 65 586T139 691T291 721ZM291 595Q258 595 241 575T218 506T212 360V350Q212 253 218 204T241 135T291 115Q324 115 341 135T364 204T371 350V360Q371 456 364 505T341 575T291 595ZM221 868H360L470 753H341L291 807L240 753H111Z" horiz-adv-x="583" unicode="Ô"/>
			<glyph d="M291 721Q390 721 442 691T517 586T539 368V342Q539 199 517 124T442 19T291 -11Q192 -11 139 19T65 124T44 342V368Q44 511 65 586T139 691T291 721ZM291 595Q258 595 241 575T218 506T212 360V350Q212 253 218 204T241 135T291 115Q324 115 341 135T364 204T371 350V360Q371 456 364 505T341 575T291 595ZM216 872Q240 872 259 866T304 849Q315 844 326 840T345 836Q357 836 361 843T366 866V870H459V847Q459 795 434 773T365 751Q339 751 320 757T275 775Q264 780 254 784T237 788Q225 788 220 780T216 757V753H123V776Q123 872 216 872Z" horiz-adv-x="583" unicode="Õ"/>
			<glyph d="M291 721Q390 721 442 691T517 586T539 368V342Q539 199 517 124T442 19T291 -11Q192 -11 139 19T65 124T44 342V368Q44 511 65 586T139 691T291 721ZM291 595Q258 595 241 575T218 506T212 360V350Q212 253 218 204T241 135T291 115Q324 115 341 135T364 204T371 350V360Q371 456 364 505T341 575T291 595ZM136 864H262V753H136ZM320 864H446V753H320Z" horiz-adv-x="583" unicode="Ö"/>
			<glyph d="M151 558L278 432L402 556L494 464L370 340L496 213L404 121L278 248L150 120L58 212L186 340L59 466Z" unicode="×"/>
			<glyph d="M491 748H582L504 622Q522 582 530 520T539 368V342Q539 199 517 124T442 19T291 -11Q184 -11 131 24L91 -40H-1L79 88Q61 129 52 190T44 342V368Q44 511 65 586T139 691T291 721Q346 721 385 712T452 685ZM291 595Q258 595 241 575T218 506T212 360V350V302L359 536Q350 568 334 581T291 595ZM371 409L224 173Q232 141 247 128T291 115Q324 115 341 135T364 204T371 350V360Z" horiz-adv-x="583" unicode="Ø"/>
			<glyph d="M61 710H229V255Q229 200 235 170T256 127T299 115Q327 115 342 127T363 170T369 255V710H537V267Q537 157 515 98T443 14T299 -11Q205 -11 154 14T82 98T61 267ZM134 868H316L396 753H266Z" horiz-adv-x="598" unicode="Ù"/>
			<glyph d="M61 710H229V255Q229 200 235 170T256 127T299 115Q327 115 342 127T363 170T369 255V710H537V267Q537 157 515 98T443 14T299 -11Q205 -11 154 14T82 98T61 267ZM281 868H464L332 753H202Z" horiz-adv-x="598" unicode="Ú"/>
			<glyph d="M61 710H229V255Q229 200 235 170T256 127T299 115Q327 115 342 127T363 170T369 255V710H537V267Q537 157 515 98T443 14T299 -11Q205 -11 154 14T82 98T61 267ZM229 868H368L478 753H349L299 807L248 753H119Z" horiz-adv-x="598" unicode="Û"/>
			<glyph d="M61 710H229V255Q229 200 235 170T256 127T299 115Q327 115 342 127T363 170T369 255V710H537V267Q537 157 515 98T443 14T299 -11Q205 -11 154 14T82 98T61 267ZM144 864H270V753H144ZM328 864H454V753H328Z" horiz-adv-x="598" unicode="Ü"/>
			<glyph d="M1 710H176L270 411L364 710H535L350 253V0H186V253ZM250 868H433L301 753H171Z" horiz-adv-x="536" unicode="Ý"/>
			<glyph d="M64 710H228V597H262Q366 597 423 577T505 510T530 378V352Q530 266 505 219T423 152T262 133H228V0H64ZM228 468V262H259Q302 262 323 270T353 299T361 360V370Q361 410 353 430T323 459T259 468Z" horiz-adv-x="560" unicode="Þ"/>
			<glyph d="M269 721Q377 721 424 674T471 537V528Q471 481 454 443T402 384Q458 368 482 327T506 222V196Q506 127 487 84T423 21T302 0H241V122H273Q319 122 335 141T351 213V231Q351 283 334 303T270 323H256V439H265Q301 439 314 460T328 529V530Q328 576 315 595T270 615Q233 615 220 594T208 517V0H54V501Q54 620 104 670T269 721Z" horiz-adv-x="543" unicode="ß"/>
			<glyph d="M261 529Q335 529 377 511T439 454T458 346V0H321L312 77Q297 31 265 10T175 -10Q103 -10 69 26T35 143Q35 206 56 240T127 290T262 305H305V342Q305 396 294 414T258 432Q231 432 220 415T207 352H55Q59 418 80 456T144 512T261 529ZM275 223Q225 223 205 207T186 153Q186 119 198 104T239 89Q275 89 290 112T305 194V223ZM94 722H275L356 584H235Z" horiz-adv-x="510" unicode="à"/>
			<glyph d="M261 529Q335 529 377 511T439 454T458 346V0H321L312 77Q297 31 265 10T175 -10Q103 -10 69 26T35 143Q35 206 56 240T127 290T262 305H305V342Q305 396 294 414T258 432Q231 432 220 415T207 352H55Q59 418 80 456T144 512T261 529ZM275 223Q225 223 205 207T186 153Q186 119 198 104T239 89Q275 89 290 112T305 194V223ZM246 722H428L287 584H166Z" horiz-adv-x="510" unicode="á"/>
			<glyph d="M261 529Q335 529 377 511T439 454T458 346V0H321L312 77Q297 31 265 10T175 -10Q103 -10 69 26T35 143Q35 206 56 240T127 290T262 305H305V342Q305 396 294 414T258 432Q231 432 220 415T207 352H55Q59 418 80 456T144 512T261 529ZM275 223Q225 223 205 207T186 153Q186 119 198 104T239 89Q275 89 290 112T305 194V223ZM195 722H326L436 584H313L261 648L209 584H85Z" horiz-adv-x="510" unicode="â"/>
			<glyph d="M261 529Q335 529 377 511T439 454T458 346V0H321L312 77Q297 31 265 10T175 -10Q103 -10 69 26T35 143Q35 206 56 240T127 290T262 305H305V342Q305 396 294 414T258 432Q231 432 220 415T207 352H55Q59 418 80 456T144 512T261 529ZM275 223Q225 223 205 207T186 153Q186 119 198 104T239 89Q275 89 290 112T305 194V223ZM188 717Q212 717 231 710T274 690Q302 674 315 674Q327 674 331 681T336 705V717H429V687Q429 631 404 607T333 583Q307 583 287 591T244 612Q234 618 224 622T207 627Q195 627 190 619T186 595V584H93V613Q93 668 117 692T188 717Z" horiz-adv-x="510" unicode="ã"/>
			<glyph d="M261 529Q335 529 377 511T439 454T458 346V0H321L312 77Q297 31 265 10T175 -10Q103 -10 69 26T35 143Q35 206 56 240T127 290T262 305H305V342Q305 396 294 414T258 432Q231 432 220 415T207 352H55Q59 418 80 456T144 512T261 529ZM275 223Q225 223 205 207T186 153Q186 119 198 104T239 89Q275 89 290 112T305 194V223ZM106 695H232V584H106ZM290 695H416V584H290Z" horiz-adv-x="510" unicode="ä"/>
			<glyph d="M261 529Q335 529 377 511T439 454T458 346V0H321L312 77Q297 31 265 10T175 -10Q103 -10 69 26T35 143Q35 206 56 240T127 290T262 305H305V342Q305 396 294 414T258 432Q231 432 220 415T207 352H55Q59 418 80 456T144 512T261 529ZM275 223Q225 223 205 207T186 153Q186 119 198 104T239 89Q275 89 290 112T305 194V223ZM260 782Q308 782 337 753T367 677Q367 631 337 602T260 574Q213 574 184 602T155 677Q155 725 184 753T260 782ZM261 712Q245 712 235 702T226 677Q226 662 235 652T261 643Q277 643 286 652T296 677Q296 693 286 702T261 712Z" horiz-adv-x="510" unicode="å"/>
			<glyph d="M248 529Q302 529 337 513T394 463Q417 498 454 513T545 529Q615 529 656 506T717 430T736 286V225H460Q461 163 465 134T483 96T524 86Q553 86 564 104T577 168H733Q727 69 683 29T542 -11Q475 -11 437 8T379 69Q360 27 319 8T208 -11Q121 -11 78 25T35 142Q35 206 57 241T128 292T264 307H308V342Q308 396 297 413T260 431Q231 431 220 415T207 352H55Q61 450 105 489T248 529ZM524 433Q500 433 486 421T467 383T460 307H581Q579 379 567 406T524 433ZM277 225Q226 225 206 209T186 153Q186 117 199 101T241 86Q277 86 292 111T308 195V225Z" horiz-adv-x="774" unicode="æ"/>
			<glyph d="M253 529Q323 529 365 510T428 448T455 331H304Q302 383 290 404T252 425Q228 425 216 411T199 365T195 273V246Q195 187 199 155T216 108T253 94Q283 94 294 118T307 206H462Q458 124 437 77T372 9T253 -11Q172 -11 126 13T60 93T40 246V272Q40 369 60 424T127 504T253 529ZM191 -49H312L276 -184H113Z" horiz-adv-x="490" unicode="ç"/>
			<glyph d="M260 529Q342 529 388 506T454 431T475 289V230H195Q196 174 201 143T220 99T260 85Q291 85 302 103T316 168H471Q467 100 446 61T380 6T260 -11Q177 -11 129 13T61 93T40 246V272Q40 369 61 424T129 504T260 529ZM260 433Q224 433 211 407T196 314H320Q318 382 305 407T260 433ZM93 721H274L355 583H234Z" horiz-adv-x="512" unicode="è"/>
			<glyph d="M260 529Q342 529 388 506T454 431T475 289V230H195Q196 174 201 143T220 99T260 85Q291 85 302 103T316 168H471Q467 100 446 61T380 6T260 -11Q177 -11 129 13T61 93T40 246V272Q40 369 61 424T129 504T260 529ZM260 433Q224 433 211 407T196 314H320Q318 382 305 407T260 433ZM245 721H427L286 583H165Z" horiz-adv-x="512" unicode="é"/>
			<glyph d="M260 529Q342 529 388 506T454 431T475 289V230H195Q196 174 201 143T220 99T260 85Q291 85 302 103T316 168H471Q467 100 446 61T380 6T260 -11Q177 -11 129 13T61 93T40 246V272Q40 369 61 424T129 504T260 529ZM260 433Q224 433 211 407T196 314H320Q318 382 305 407T260 433ZM194 721H325L435 583H312L260 647L208 583H84Z" horiz-adv-x="512" unicode="ê"/>
			<glyph d="M260 529Q342 529 388 506T454 431T475 289V230H195Q196 174 201 143T220 99T260 85Q291 85 302 103T316 168H471Q467 100 446 61T380 6T260 -11Q177 -11 129 13T61 93T40 246V272Q40 369 61 424T129 504T260 529ZM260 433Q224 433 211 407T196 314H320Q318 382 305 407T260 433ZM105 694H231V583H105ZM289 694H415V583H289Z" horiz-adv-x="512" unicode="ë"/>
			<glyph d="M54 518H208V0H54ZM-36 721H145L226 583H105Z" horiz-adv-x="262" unicode="ì"/>
			<glyph d="M54 518H208V0H54ZM116 721H298L157 583H36Z" horiz-adv-x="262" unicode="í"/>
			<glyph d="M54 518H208V0H54ZM65 721H196L306 583H183L131 647L79 583H-45Z" horiz-adv-x="262" unicode="î"/>
			<glyph d="M54 518H208V0H54ZM-24 694H102V583H-24ZM160 694H286V583H160Z" horiz-adv-x="262" unicode="ï"/>
			<glyph d="M335 756L384 721L322 667Q413 599 448 508T483 275V239Q483 145 462 91T393 13T261 -11Q178 -11 130 13T61 90T40 236V256Q40 384 83 441T215 499Q255 499 286 483T340 432Q325 488 302 523T235 590L165 528L115 564L183 623L101 666L178 748Q231 725 271 700ZM261 390Q233 390 219 376T200 334T195 256V236Q195 180 200 150T219 107T261 94Q289 94 303 107T322 149T327 236V256Q327 307 322 335T303 376T261 390Z" horiz-adv-x="523" unicode="ð"/>
			<glyph d="M343 529Q396 529 426 512T469 458T483 354V0H330V324Q330 376 319 396T276 416Q244 416 226 396T208 328V0H54V518H192L199 442Q221 490 254 509T343 529ZM203 716Q227 716 246 709T289 689Q317 673 330 673Q342 673 346 680T351 704V716H444V686Q444 630 419 606T348 582Q322 582 302 590T259 611Q249 617 239 621T222 626Q210 626 205 618T201 594V583H108V612Q108 667 132 691T203 716Z" horiz-adv-x="535" unicode="ñ"/>
			<glyph d="M261 529Q345 529 393 504T462 424T483 272V246Q483 149 462 93T393 13T261 -11Q178 -11 130 13T61 93T40 246V272Q40 369 61 424T130 504T261 529ZM261 425Q233 425 219 410T200 364T195 273V246Q195 186 200 154T219 108T261 94Q289 94 303 108T322 153T327 246V273Q327 333 322 364T303 410T261 425ZM94 721H275L356 583H235Z" horiz-adv-x="523" unicode="ò"/>
			<glyph d="M261 529Q345 529 393 504T462 424T483 272V246Q483 149 462 93T393 13T261 -11Q178 -11 130 13T61 93T40 246V272Q40 369 61 424T130 504T261 529ZM261 425Q233 425 219 410T200 364T195 273V246Q195 186 200 154T219 108T261 94Q289 94 303 108T322 153T327 246V273Q327 333 322 364T303 410T261 425ZM246 721H428L287 583H166Z" horiz-adv-x="523" unicode="ó"/>
			<glyph d="M261 529Q345 529 393 504T462 424T483 272V246Q483 149 462 93T393 13T261 -11Q178 -11 130 13T61 93T40 246V272Q40 369 61 424T130 504T261 529ZM261 425Q233 425 219 410T200 364T195 273V246Q195 186 200 154T219 108T261 94Q289 94 303 108T322 153T327 246V273Q327 333 322 364T303 410T261 425ZM195 721H326L436 583H313L261 647L209 583H85Z" horiz-adv-x="523" unicode="ô"/>
			<glyph d="M261 529Q345 529 393 504T462 424T483 272V246Q483 149 462 93T393 13T261 -11Q178 -11 130 13T61 93T40 246V272Q40 369 61 424T130 504T261 529ZM261 425Q233 425 219 410T200 364T195 273V246Q195 186 200 154T219 108T261 94Q289 94 303 108T322 153T327 246V273Q327 333 322 364T303 410T261 425ZM188 716Q212 716 231 709T274 689Q302 673 315 673Q327 673 331 680T336 704V716H429V686Q429 630 404 606T333 582Q307 582 287 590T244 611Q234 617 224 621T207 626Q195 626 190 618T186 594V583H93V612Q93 667 117 691T188 716Z" horiz-adv-x="523" unicode="õ"/>
			<glyph d="M261 529Q345 529 393 504T462 424T483 272V246Q483 149 462 93T393 13T261 -11Q178 -11 130 13T61 93T40 246V272Q40 369 61 424T130 504T261 529ZM261 425Q233 425 219 410T200 364T195 273V246Q195 186 200 154T219 108T261 94Q289 94 303 108T322 153T327 246V273Q327 333 322 364T303 410T261 425ZM106 694H232V583H106ZM290 694H416V583H290Z" horiz-adv-x="523" unicode="ö"/>
			<glyph d="M207 587H347V466H207ZM51 405H503V275H51ZM207 214H347V93H207Z" unicode="÷"/>
			<glyph d="M431 558H513L444 459Q483 401 483 272V246Q483 149 462 93T393 13T261 -11Q176 -11 130 14L92 -40H10L79 58Q40 117 40 246V272Q40 369 61 424T130 504T261 529Q344 529 393 504ZM261 425Q233 425 219 410T200 364T195 273V246V223L315 393Q307 410 294 417T261 425ZM327 294L208 125Q215 109 228 101T261 94Q289 94 303 108T322 153T327 246V273Z" horiz-adv-x="523" unicode="ø"/>
			<glyph d="M52 518H205V199Q205 144 216 123T259 102Q327 102 327 191V518H481V0H342L335 75Q314 28 281 8T192 -11Q139 -11 109 6T65 61T52 165ZM99 721H280L361 583H240Z" horiz-adv-x="535" unicode="ù"/>
			<glyph d="M52 518H205V199Q205 144 216 123T259 102Q327 102 327 191V518H481V0H342L335 75Q314 28 281 8T192 -11Q139 -11 109 6T65 61T52 165ZM251 721H433L292 583H171Z" horiz-adv-x="535" unicode="ú"/>
			<glyph d="M52 518H205V199Q205 144 216 123T259 102Q327 102 327 191V518H481V0H342L335 75Q314 28 281 8T192 -11Q139 -11 109 6T65 61T52 165ZM200 721H331L441 583H318L266 647L214 583H90Z" horiz-adv-x="535" unicode="û"/>
			<glyph d="M52 518H205V199Q205 144 216 123T259 102Q327 102 327 191V518H481V0H342L335 75Q314 28 281 8T192 -11Q139 -11 109 6T65 61T52 165ZM111 694H237V583H111ZM295 694H421V583H295Z" horiz-adv-x="535" unicode="ü"/>
			<glyph d="M2 518H162L233 164L301 518H459L299 -27Q280 -94 262 -128T212 -179T122 -196H70V-70H85Q121 -70 136 -61T158 -24L165 0ZM215 721H397L256 583H135Z" horiz-adv-x="461" unicode="ý"/>
			<glyph d="M54 710H208V454Q230 495 259 512T335 529Q394 529 428 504T477 424T492 272V246Q492 149 477 93T428 13T335 -11Q289 -11 259 6T208 65V-192H54ZM274 416Q240 416 224 396T208 329V189Q208 142 224 122T274 102Q299 102 312 115T332 160T338 253V266Q338 326 332 358T312 403T274 416Z" horiz-adv-x="532" unicode="þ"/>
			<glyph d="M2 518H162L233 164L301 518H459L299 -27Q280 -94 262 -128T212 -179T122 -196H70V-70H85Q121 -70 136 -61T158 -24L165 0ZM75 694H201V583H75ZM259 694H385V583H259Z" horiz-adv-x="461" unicode="ÿ"/>
			<glyph d="M54 518H208V0H54Z" horiz-adv-x="262" unicode="ı"/>
			<glyph d="M64 710H228V463L310 502V377L228 338V142H422V0H64V259L0 228V354L64 385Z" horiz-adv-x="440" unicode="Ł"/>
			<glyph d="M54 710H208V469L262 500V390L208 359V0H54V273L0 242V352L54 383Z" horiz-adv-x="262" unicode="ł"/>
			<glyph d="M254 721Q346 721 384 674V710H734V585H532V425H713V300H532V125H744V0H384V36Q365 12 332 0T252 -11Q180 -11 135 19T67 127T44 342V368Q44 506 67 583T135 690T254 721ZM290 595Q257 595 241 575T218 506T212 360V350Q212 253 218 204T241 135T290 115Q323 115 339 135T362 204T368 350V360Q368 457 362 506T339 575T290 595Z" horiz-adv-x="776" unicode="Œ"/>
			<glyph d="M249 529Q361 529 404 459Q448 529 566 529Q635 529 677 506T740 430T761 289V230H481Q482 173 487 143T506 99T546 86Q577 86 588 103T602 168H757Q751 70 706 29T566 -11Q448 -11 403 61Q382 25 343 7T254 -11Q176 -11 129 13T61 94T40 246V272Q40 368 61 424T127 504T249 529ZM546 433Q510 433 496 408T481 315H606Q604 382 591 407T546 433ZM261 425Q233 425 219 410T200 364T195 273V246Q195 186 200 154T219 108T261 94Q289 94 303 108T323 154T328 246V273Q328 333 323 364T303 410T261 425Z" horiz-adv-x="799" unicode="œ"/>
			<glyph d="M271 721Q351 721 396 702T461 642T481 528V513H332V528Q332 567 317 585T265 603Q200 603 200 540Q200 511 210 494T237 468T285 447L320 433Q328 430 383 409T468 338T498 209Q498 128 475 80T401 10T263 -11Q176 -11 127 10T57 79T36 211V237H187V214Q187 156 205 131T269 107Q311 107 327 126T344 186Q344 223 331 244T300 275T243 299L205 314Q152 334 120 353T67 412T45 522Q45 629 97 675T271 721ZM88 868H217L268 814L318 868H447L337 753H198Z" horiz-adv-x="532" unicode="Š"/>
			<glyph d="M229 529Q298 529 337 515T394 469T412 381V373H275V380Q275 409 264 421T226 433Q198 433 186 422T174 388Q174 370 182 360T204 345T248 331L290 318Q339 303 364 290T409 245T428 154Q428 64 380 26T227 -11Q153 -11 110 4T49 54T30 149V169H169V156Q169 116 182 101T230 86Q262 86 274 99T287 144Q287 172 269 184T212 207L193 213L157 224Q117 236 91 250T50 294T34 374Q34 459 79 494T229 529ZM53 721H177L229 656L281 721H404L294 583H163Z" horiz-adv-x="457" unicode="š"/>
			<glyph d="M1 710H176L270 411L364 710H535L350 253V0H186V253ZM113 864H239V753H113ZM297 864H423V753H297Z" horiz-adv-x="536" unicode="Ÿ"/>
			<glyph d="M50 710H448V602L211 126H468V0H32V108L270 584H50ZM70 868H199L250 814L300 868H429L319 753H180Z" horiz-adv-x="494" unicode="Ž"/>
			<glyph d="M43 518H396V421L198 115H410V0H24V97L223 404H43ZM44 721H168L220 656L272 721H395L285 583H154Z" horiz-adv-x="432" unicode="ž"/>
			<glyph d="M404 710H508V589H440Q415 589 406 577T391 528L372 418H492V305H352L292 -32Q279 -101 264 -135T218 -185T126 -202H26V-80H90Q116 -80 124 -68T140 -20L197 305H71V418H217L238 540Q250 608 265 642T311 693T404 710Z" unicode="ƒ"/>
			<glyph d="M150 721H281L391 583H268L216 647L164 583H40Z" horiz-adv-x="431" unicode="ˆ"/>
			<glyph d="M40 721H164L216 656L268 721H391L281 583H150Z" horiz-adv-x="431" unicode="ˇ"/>
			<glyph d="M40 674H339V583H40Z" horiz-adv-x="379" unicode="ˉ"/>
			<glyph d="M40 720H133Q133 691 146 675T192 660Q224 660 237 675T250 720H343Q343 654 304 616T191 578Q118 578 79 616T40 720Z" horiz-adv-x="383" unicode="˘"/>
			<glyph d="M40 694H194V583H40Z" horiz-adv-x="234" unicode="˙"/>
			<glyph d="M145 785Q193 785 222 756T252 680Q252 634 222 605T145 577Q98 577 69 605T40 680Q40 728 69 756T145 785ZM146 715Q130 715 120 705T111 680Q111 665 120 655T146 646Q162 646 171 655T181 680Q181 696 171 705T146 715Z" horiz-adv-x="292" unicode="˚"/>
			<glyph d="M134 10H191Q157 -20 141 -44T126 -93Q126 -134 175 -134Q196 -134 223 -125V-190Q194 -206 151 -206Q97 -206 68 -184T40 -122Q40 -49 134 10Z" horiz-adv-x="263" unicode="˛"/>
			<glyph d="M135 716Q159 716 178 709T221 689Q249 673 262 673Q274 673 278 680T283 704V716H376V686Q376 630 351 606T280 582Q254 582 234 590T191 611Q181 617 171 621T154 626Q142 626 137 618T133 594V583H40V612Q40 667 64 691T135 716Z" horiz-adv-x="416" unicode="˜"/>
			<glyph d="M102 721H268L152 583H40ZM302 721H468L327 583H215Z" horiz-adv-x="508" unicode="˝"/>
			<glyph d="M-302 721H-121L-40 583H-161Z" horiz-adv-x="0" unicode="̀"/>
			<glyph d="M-222 721H-40L-181 583H-302Z" horiz-adv-x="0" unicode="́"/>
			<glyph d="M-281 721H-150L-40 583H-163L-215 647L-267 583H-391Z" horiz-adv-x="0" unicode="̂"/>
			<glyph d="M-281 716Q-257 716 -237 709T-195 689Q-167 673 -154 673Q-142 673 -137 680T-133 704V716H-40V686Q-40 630 -65 606T-136 582Q-162 582 -182 590T-225 611Q-235 617 -245 621T-262 626Q-274 626 -278 618T-283 594V583H-376V612Q-376 667 -351 691T-281 716Z" horiz-adv-x="0" unicode="̃"/>
			<glyph d="M-339 674H-40V583H-339Z" horiz-adv-x="0" unicode="̄"/>
			<glyph d="M-343 720H-250Q-250 691 -236 675T-191 660Q-159 660 -146 675T-133 720H-40Q-40 654 -79 616T-192 578Q-265 578 -304 616T-343 720Z" horiz-adv-x="0" unicode="̆"/>
			<glyph d="M-194 694H-40V583H-194Z" horiz-adv-x="0" unicode="̇"/>
			<glyph d="M-355 694H-229V583H-355ZM-171 694H-45V583H-171Z" horiz-adv-x="0" unicode="̈"/>
			<glyph d="M-147 781Q-99 781 -69 752T-40 676Q-40 630 -69 601T-147 573Q-194 573 -223 601T-252 676Q-252 724 -223 752T-147 781ZM-146 711Q-162 711 -171 701T-181 676Q-181 661 -171 651T-146 642Q-130 642 -120 651T-111 676Q-111 692 -120 701T-146 711Z" horiz-adv-x="0" unicode="̊"/>
			<glyph d="M-406 721H-240L-356 583H-468ZM-206 721H-40L-181 583H-293Z" horiz-adv-x="0" unicode="̋"/>
			<glyph d="M-391 721H-267L-215 656L-163 721H-40L-150 583H-281Z" horiz-adv-x="0" unicode="̌"/>
			<glyph d="M-163 -49H-42L-78 -184H-241Z" horiz-adv-x="0" unicode="̧"/>
			<glyph d="M-129 10H-72Q-106 -20 -121 -44T-137 -93Q-137 -134 -88 -134Q-67 -134 -40 -125V-190Q-69 -206 -112 -206Q-166 -206 -194 -184T-223 -122Q-223 -49 -129 10Z" horiz-adv-x="0" unicode="̨"/>
			<glyph d="M300 721Q399 721 451 693T525 595T547 391V365Q547 264 523 207T443 119H558V0H318V124Q343 136 356 156T374 221T379 350V360Q379 457 372 506T349 575T300 595Q266 595 249 575T226 506T220 360V350Q220 265 225 221T243 156T281 124V0H41V119H156Q99 150 75 207T52 365V391Q52 525 73 595T147 693T300 721Z" horiz-adv-x="599" unicode="Ω"/>
			<glyph d="M54 518H208V195Q208 147 220 128T265 110Q337 110 337 198V518H490V0H352L347 55Q333 20 314 4T267 -11Q225 -11 208 30V-142H54Z" horiz-adv-x="544" unicode="μ"/>
			<glyph d="M8 518H527V388H454V170Q454 147 462 138T489 129H512V-5H437Q366 -5 337 27T309 139V388H228L185 0H40L89 388H8Z" horiz-adv-x="547" unicode="π"/>
			<glyph d="M50 373H518V250H50Z" horiz-adv-x="568" unicode="–"/>
			<glyph d="M50 373H770V250H50Z" horiz-adv-x="820" unicode="—"/>
			<glyph d="M159 710H197V647H167Q142 647 131 636T120 601V581H190V426H49V603Q49 663 76 686T159 710Z" horiz-adv-x="238" unicode="‘"/>
			<glyph d="M49 710H190V533Q190 473 163 449T80 426H42V489H72Q97 489 108 500T119 536V555H49Z" horiz-adv-x="238" unicode="’"/>
			<glyph d="M49 155H190V-22Q190 -82 163 -105T80 -129H42V-66H72Q97 -66 108 -55T119 -20V0H49Z" horiz-adv-x="238" unicode="‚"/>
			<glyph d="M159 710H197V647H167Q142 647 131 636T120 601V581H190V426H49V603Q49 663 76 686T159 710ZM352 710H390V647H360Q335 647 324 636T313 601V581H383V426H242V603Q242 663 269 686T352 710Z" horiz-adv-x="432" unicode="“"/>
			<glyph d="M49 710H190V533Q190 473 163 449T80 426H42V489H72Q97 489 108 500T119 536V555H49ZM242 710H383V533Q383 473 356 449T273 426H235V489H265Q290 489 301 500T312 536V555H242Z" horiz-adv-x="432" unicode="”"/>
			<glyph d="M49 155H190V-22Q190 -82 163 -105T80 -129H42V-66H72Q97 -66 108 -55T119 -20V0H49ZM242 155H383V-22Q383 -82 356 -105T273 -129H235V-66H265Q290 -66 301 -55T312 -20V0H242Z" horiz-adv-x="432" unicode="„"/>
			<glyph d="M151 710H298V532H412V402H298V-128H151V402H36V532H151Z" horiz-adv-x="449" unicode="†"/>
			<glyph d="M151 710H298V532H412V402H298V180H412V49H298V-128H151V49H36V180H151V402H36V532H151Z" horiz-adv-x="449" unicode="‡"/>
			<glyph d="M220 521Q263 521 298 501T354 445T374 367Q374 324 354 288T298 233T220 213Q177 213 142 233T87 288T67 367Q67 410 87 445T142 501T220 521Z" horiz-adv-x="440" unicode="•"/>
			<glyph d="M626 155H767V0H626ZM340 155H481V0H340ZM54 155H195V0H54Z" horiz-adv-x="821" unicode="…"/>
			<glyph d="M528 724H637L251 -14H142ZM171 721Q230 721 261 703T306 644T319 524V509Q319 431 306 389T261 329T171 312Q112 312 80 329T34 389T21 509V524Q21 601 34 643T80 703T171 721ZM171 640Q155 640 147 632T137 598T134 518V513Q134 458 137 433T147 401T171 393Q187 393 194 401T204 433T207 513V518Q207 573 204 598T194 632T171 640ZM608 398Q667 398 698 380T743 321T756 201V186Q756 108 743 66T698 6T608 -11Q549 -11 517 6T471 66T458 186V201Q458 279 471 321T517 380T608 398ZM946 398Q1005 398 1037 380T1082 321T1095 201V186Q1095 108 1082 66T1037 6T946 -11Q887 -11 855 6T809 66T796 186V201Q796 278 809 320T855 380T946 398ZM608 317Q591 317 583 309T573 276T570 196V191Q570 136 573 111T583 78T608 70Q624 70 631 78T641 111T644 191V196Q644 251 641 276T631 309T608 317ZM946 317Q930 317 922 309T912 276T909 196V191Q909 136 912 111T922 78T946 70Q962 70 969 78T979 111T982 191V196Q982 251 979 276T969 309T946 317Z" horiz-adv-x="1116" unicode="‰"/>
			<glyph d="M161 465H287L182 260L287 55H161L41 257V263Z" horiz-adv-x="322" unicode="‹"/>
			<glyph d="M35 465H162L281 263V257L162 55H35L141 260Z" horiz-adv-x="322" unicode="›"/>
			<glyph d="M248 730H362L-61 -20H-175ZZ" horiz-adv-x="187" unicode="⁄"/>
			<glyph d="M297 721Q379 721 426 700T495 627T523 480H363Q362 533 356 559T336 595T297 605Q273 605 260 595T240 556T232 472H341L331 384H231V343H324L314 255H232Q234 191 240 159T259 116T297 105Q322 105 335 116T355 157T363 248H526Q520 145 497 89T427 11T297 -11Q215 -11 168 12T98 93T69 255H10V343H67V368V384H10V472H70Q77 570 100 623T170 699T297 721Z" unicode="€"/>
			<glyph d="M302 721Q386 721 427 684T468 561Q468 472 415 404T279 302V175Q279 124 296 102T352 81Q421 81 426 161H503Q498 74 454 32T312 -10Q221 -10 171 31T122 179V247Q88 235 26 218V300Q55 308 122 330V552Q122 638 164 679T302 721ZM325 640Q297 640 288 622T279 565V388Q327 414 352 457T378 558Q378 604 365 622T325 640Z" horiz-adv-x="526" unicode="ℓ"/>
			<glyph d="M11 710H245V626H177V346H79V626H11ZM281 710H419L463 482L505 710H637V346H551V627L492 346H422L363 623V346H281Z" horiz-adv-x="698" unicode="™"/>
			<glyph d="M300 721Q399 721 451 693T525 595T547 391V365Q547 264 523 207T443 119H558V0H318V124Q343 136 356 156T374 221T379 350V360Q379 457 372 506T349 575T300 595Q266 595 249 575T226 506T220 360V350Q220 265 225 221T243 156T281 124V0H41V119H156Q99 150 75 207T52 365V391Q52 525 73 595T147 693T300 721Z" horiz-adv-x="599" unicode="Ω"/>
			<glyph d="M289 512Q359 512 415 480T504 388T536 249H167V92Q191 71 223 57T289 44Q333 44 363 56T414 90T459 147L506 116Q466 53 418 19T289 -14Q212 -14 156 22T71 119T42 249Q42 336 78 395T170 483T289 512ZM289 455Q215 455 167 410V299H413V414Q390 432 358 443T289 455Z" horiz-adv-x="579" unicode="℮"/>
			<glyph d="M275 721Q363 721 414 683T486 571T507 378V262Q507 167 484 107T409 18T269 -11Q148 -11 97 43T47 215V230Q47 338 93 388T231 438Q305 438 344 401V426Q344 513 319 547T250 582Q196 582 135 540L76 656Q126 689 174 705T275 721ZM271 330Q235 330 223 306T211 223V205Q211 147 223 124T277 102Q318 102 331 126T344 207V229Q344 282 326 306T271 330Z" unicode="∂"/>
			<glyph d="M186 710H392L571 0H8ZM288 578L201 136H375Z" horiz-adv-x="579" unicode="∆"/>
			<glyph d="M64 710H520V-100H356V568H228V-100H64Z" horiz-adv-x="584" unicode="∏"/>
			<glyph d="M51 710H450V584H224L385 305L224 27H450V-100H51V8L220 307L51 602Z" horiz-adv-x="499" unicode="∑"/>
			<glyph d="M51 405H503V275H51Z" unicode="−"/>
			<glyph d="M278 730H400L24 -20H-98ZZ" horiz-adv-x="302" unicode="∕"/>
			<glyph d="M54 436H195V281H54Z" horiz-adv-x="249" unicode="∙"/>
			<glyph d="M390 710H547L393 0H175L104 311H20V441H226L284 122Z" horiz-adv-x="539" unicode="√"/>
			<glyph d="M149 478Q214 478 276 411Q338 478 405 478Q466 478 499 441T532 341Q532 276 499 239T405 203Q338 203 276 270Q214 203 149 203Q88 203 55 239T22 341Q22 405 55 441T149 478ZM157 378Q124 378 124 341Q124 303 157 303Q179 303 216 341Q179 378 157 378ZM397 378Q373 378 338 341Q373 303 397 303Q411 303 420 312T430 341Q430 359 420 368T397 378Z" unicode="∞"/>
			<glyph d="M241 710H326V584H278Q250 584 239 571T229 524V-22Q229 -85 213 -122T161 -175T63 -192H-11V-66H27Q55 -66 65 -53T75 -6V540Q75 603 91 640T143 693T241 710Z" horiz-adv-x="326" unicode="∫"/>
			<glyph d="M162 547Q193 547 223 536T291 508Q317 495 332 489T361 483Q376 483 382 492T388 524V546H506V494Q506 425 476 396T391 367Q357 367 325 378T257 408Q238 417 220 424T192 431Q178 431 172 421T166 390V368H48V420Q48 487 77 517T162 547ZM162 321Q193 321 223 310T291 282Q317 269 332 263T361 257Q376 257 382 266T388 299V320H506V269Q506 200 476 170T391 141Q357 141 325 152T257 182Q238 191 220 198T192 205Q178 205 172 195T166 164V142H48V194Q48 262 77 291T162 321Z" unicode="≈"/>
			<glyph d="M380 615H466L417 522H485V392H348L293 288H485V158H224L175 65H89L138 158H69V288H207L262 392H69V522H331Z" unicode="≠"/>
			<glyph d="M485 611V472L213 391L485 310V171L69 326V456ZM51 136H503V5H51Z" unicode="≤"/>
			<glyph d="M69 611L485 456V326L69 171V310L341 391L69 472ZM51 136H503V5H51Z" unicode="≥"/>
			<glyph d="M232 710H334L532 355L334 0H232L32 355ZM283 534L187 355L283 174L378 355Z" horiz-adv-x="565" unicode="◊"/>
			<glyph d="M234 710H295V593H270Q242 593 231 580T221 532V518H343V540Q343 603 359 640T411 693T509 710H593V593H545Q518 593 507 579T497 532V518H588V405H497V0H343V405H221V0H68V405H8V518H68V540Q68 603 84 640T136 693T234 710Z" horiz-adv-x="596" unicode="ﬀ"/>
			<glyph d="M234 710H298V593H270Q242 593 231 580T221 532V518H292V405H221V0H68V405H8V518H68V540Q68 603 84 640T136 693T234 710ZM342 704H496V585H342ZM343 518H496V0H343Z" horiz-adv-x="550" unicode="ﬁ"/>
			<glyph d="M234 710H298V593H270Q242 593 231 580T221 532V518H292V405H221V0H68V405H8V518H68V540Q68 603 84 640T136 693T234 710ZM343 710H497V0H343Z" horiz-adv-x="551" unicode="ﬂ"/>
		</font>
</defs>
</svg>
